<?xml version="1.0" encoding="utf-8" standalone="no"?>
<!DOCTYPE svg PUBLIC "-//W3C//DTD SVG 1.1//EN"
  "http://www.w3.org/Graphics/SVG/1.1/DTD/svg11.dtd">
<svg xmlns:xlink="http://www.w3.org/1999/xlink" width="460.8pt" height="345.6pt" viewBox="0 0 460.8 345.6" xmlns="http://www.w3.org/2000/svg" version="1.1">
 <metadata>
  <rdf:RDF xmlns:dc="http://purl.org/dc/elements/1.1/" xmlns:cc="http://creativecommons.org/ns#" xmlns:rdf="http://www.w3.org/1999/02/22-rdf-syntax-ns#">
   <cc:Work>
    <dc:type rdf:resource="http://purl.org/dc/dcmitype/StillImage"/>
    <dc:date>2022-09-02T08:53:29.428517</dc:date>
    <dc:format>image/svg+xml</dc:format>
    <dc:creator>
     <cc:Agent>
      <dc:title>Matplotlib v3.5.1, https://matplotlib.org/</dc:title>
     </cc:Agent>
    </dc:creator>
   </cc:Work>
  </rdf:RDF>
 </metadata>
 <defs>
  <style type="text/css">*{stroke-linejoin: round; stroke-linecap: butt}</style>
 </defs>
 <g id="figure_1">
  <g id="patch_1">
   <path d="M 0 345.6 
L 460.8 345.6 
L 460.8 0 
L 0 0 
z
" style="fill: #ffffff"/>
  </g>
  <g id="axes_1">
   <g id="patch_2">
    <path d="M 57.6 307.584 
L 414.72 307.584 
L 414.72 41.472 
L 57.6 41.472 
z
" style="fill: #ffffff"/>
   </g>
   <g id="PathCollection_1">
    <defs>
     <path id="m36c6d8bfb5" d="M 0 3 
C 0.795609 3 1.55874 2.683901 2.12132 2.12132 
C 2.683901 1.55874 3 0.795609 3 0 
C 3 -0.795609 2.683901 -1.55874 2.12132 -2.12132 
C 1.55874 -2.683901 0.795609 -3 0 -3 
C -0.795609 -3 -1.55874 -2.683901 -2.12132 -2.12132 
C -2.683901 -1.55874 -3 -0.795609 -3 0 
C -3 0.795609 -2.683901 1.55874 -2.12132 2.12132 
C -1.55874 2.683901 -0.795609 3 0 3 
z
" style="stroke: #1f77b4"/>
    </defs>
    <g clip-path="url(#pe0c4452d7e)">
     <use xlink:href="#m36c6d8bfb5" x="136.877921" y="306.051111" style="fill: #1f77b4; stroke: #1f77b4"/>
     <use xlink:href="#m36c6d8bfb5" x="139.913002" y="292.322686" style="fill: #1f77b4; stroke: #1f77b4"/>
     <use xlink:href="#m36c6d8bfb5" x="142.948084" y="278.726243" style="fill: #1f77b4; stroke: #1f77b4"/>
     <use xlink:href="#m36c6d8bfb5" x="145.983165" y="260.412666" style="fill: #1f77b4; stroke: #1f77b4"/>
     <use xlink:href="#m36c6d8bfb5" x="149.018246" y="239.601783" style="fill: #1f77b4; stroke: #1f77b4"/>
     <use xlink:href="#m36c6d8bfb5" x="152.053328" y="213.51881" style="fill: #1f77b4; stroke: #1f77b4"/>
     <use xlink:href="#m36c6d8bfb5" x="155.088409" y="187.435837" style="fill: #1f77b4; stroke: #1f77b4"/>
     <use xlink:href="#m36c6d8bfb5" x="158.12349" y="163.295213" style="fill: #1f77b4; stroke: #1f77b4"/>
     <use xlink:href="#m36c6d8bfb5" x="161.158572" y="139.709546" style="fill: #1f77b4; stroke: #1f77b4"/>
     <use xlink:href="#m36c6d8bfb5" x="164.193653" y="123.06084" style="fill: #1f77b4; stroke: #1f77b4"/>
     <use xlink:href="#m36c6d8bfb5" x="167.228734" y="107.799526" style="fill: #1f77b4; stroke: #1f77b4"/>
     <use xlink:href="#m36c6d8bfb5" x="170.263815" y="96.700389" style="fill: #1f77b4; stroke: #1f77b4"/>
     <use xlink:href="#m36c6d8bfb5" x="173.298897" y="98.087781" style="fill: #1f77b4; stroke: #1f77b4"/>
     <use xlink:href="#m36c6d8bfb5" x="176.333978" y="93.925604" style="fill: #1f77b4; stroke: #1f77b4"/>
     <use xlink:href="#m36c6d8bfb5" x="179.369059" y="98.087781" style="fill: #1f77b4; stroke: #1f77b4"/>
     <use xlink:href="#m36c6d8bfb5" x="182.404141" y="111.961703" style="fill: #1f77b4; stroke: #1f77b4"/>
     <use xlink:href="#m36c6d8bfb5" x="185.439222" y="120.286056" style="fill: #1f77b4; stroke: #1f77b4"/>
     <use xlink:href="#m36c6d8bfb5" x="188.474303" y="125.835625" style="fill: #1f77b4; stroke: #1f77b4"/>
     <use xlink:href="#m36c6d8bfb5" x="191.509385" y="141.096939" style="fill: #1f77b4; stroke: #1f77b4"/>
     <use xlink:href="#m36c6d8bfb5" x="194.544466" y="152.196076" style="fill: #1f77b4; stroke: #1f77b4"/>
     <use xlink:href="#m36c6d8bfb5" x="197.579547" y="164.682606" style="fill: #1f77b4; stroke: #1f77b4"/>
     <use xlink:href="#m36c6d8bfb5" x="200.614629" y="178.695267" style="fill: #1f77b4; stroke: #1f77b4"/>
     <use xlink:href="#m36c6d8bfb5" x="203.64971" y="187.852055" style="fill: #1f77b4; stroke: #1f77b4"/>
     <use xlink:href="#m36c6d8bfb5" x="206.684791" y="195.76019" style="fill: #1f77b4; stroke: #1f77b4"/>
     <use xlink:href="#m36c6d8bfb5" x="209.719873" y="207.691763" style="fill: #1f77b4; stroke: #1f77b4"/>
     <use xlink:href="#m36c6d8bfb5" x="212.754954" y="216.987291" style="fill: #1f77b4; stroke: #1f77b4"/>
     <use xlink:href="#m36c6d8bfb5" x="215.790035" y="224.895426" style="fill: #1f77b4; stroke: #1f77b4"/>
     <use xlink:href="#m36c6d8bfb5" x="218.825117" y="233.497258" style="fill: #1f77b4; stroke: #1f77b4"/>
     <use xlink:href="#m36c6d8bfb5" x="221.860198" y="245.983787" style="fill: #1f77b4; stroke: #1f77b4"/>
     <use xlink:href="#m36c6d8bfb5" x="224.895279" y="256.527968" style="fill: #1f77b4; stroke: #1f77b4"/>
     <use xlink:href="#m36c6d8bfb5" x="227.930361" y="262.493754" style="fill: #1f77b4; stroke: #1f77b4"/>
     <use xlink:href="#m36c6d8bfb5" x="230.965442" y="272.344239" style="fill: #1f77b4; stroke: #1f77b4"/>
     <use xlink:href="#m36c6d8bfb5" x="234.000523" y="277.061372" style="fill: #1f77b4; stroke: #1f77b4"/>
     <use xlink:href="#m36c6d8bfb5" x="237.035605" y="280.94607" style="fill: #1f77b4; stroke: #1f77b4"/>
     <use xlink:href="#m36c6d8bfb5" x="240.070686" y="284.969507" style="fill: #1f77b4; stroke: #1f77b4"/>
     <use xlink:href="#m36c6d8bfb5" x="243.105767" y="289.686641" style="fill: #1f77b4; stroke: #1f77b4"/>
     <use xlink:href="#m36c6d8bfb5" x="246.646696" y="289.686641" style="fill: #1f77b4; stroke: #1f77b4"/>
     <use xlink:href="#m36c6d8bfb5" x="249.631192" y="293.155121" style="fill: #1f77b4; stroke: #1f77b4"/>
     <use xlink:href="#m36c6d8bfb5" x="252.716858" y="293.820654" style="fill: #1f77b4; stroke: #1f77b4"/>
     <use xlink:href="#m36c6d8bfb5" x="254.993169" y="293.155121" style="fill: #1f77b4; stroke: #1f77b4"/>
     <use xlink:href="#m36c6d8bfb5" x="259.039944" y="297.247401" style="fill: #1f77b4; stroke: #1f77b4"/>
     <use xlink:href="#m36c6d8bfb5" x="261.822102" y="294.69712" style="fill: #1f77b4; stroke: #1f77b4"/>
     <use xlink:href="#m36c6d8bfb5" x="264.857184" y="293.4326" style="fill: #1f77b4; stroke: #1f77b4"/>
     <use xlink:href="#m36c6d8bfb5" x="267.892265" y="297.463179" style="fill: #1f77b4; stroke: #1f77b4"/>
     <use xlink:href="#m36c6d8bfb5" x="270.927346" y="302.773352" style="fill: #1f77b4; stroke: #1f77b4"/>
    </g>
   </g>
   <g id="PolyCollection_1">
    <path d="M 73.832727 307.161507 
L 73.832727 307.584 
L 73.832727 307.584 
L 73.832727 307.584 
L 73.832727 307.584 
L 73.832727 307.584 
L 73.832727 307.584 
L 73.832727 307.584 
L 73.832727 307.584 
L 73.832727 307.584 
L 73.832727 307.584 
L 73.832727 307.584 
L 73.832727 307.584 
L 73.832727 307.584 
L 73.832727 307.584 
L 73.832727 307.584 
L 73.832727 307.584 
L 73.832727 307.584 
L 73.832727 307.584 
L 73.832727 307.584 
L 73.832727 307.584 
L 73.832727 307.584 
L 73.832727 307.584 
L 73.832727 307.584 
L 73.832727 307.584 
L 73.832727 307.584 
L 73.832727 307.584 
L 73.832727 307.584 
L 73.832727 307.584 
L 73.832727 307.584 
L 73.832727 307.584 
L 73.832727 307.584 
L 73.832727 307.584 
L 73.832727 307.584 
L 73.832727 307.584 
L 73.832727 307.584 
L 73.832727 307.584 
L 73.832727 307.584 
L 73.832727 307.584 
L 73.832727 307.584 
L 73.832727 307.584 
L 73.832727 307.584 
L 73.832727 307.584 
L 73.832727 307.584 
L 73.832727 307.584 
L 73.832727 307.584 
L 73.832727 307.584 
L 73.832727 307.584 
L 73.832727 307.584 
L 73.832727 307.584 
L 73.832727 307.584 
L 73.832727 307.584 
L 73.832727 307.584 
L 73.832727 307.584 
L 73.832727 307.584 
L 73.832727 307.584 
L 73.832727 307.584 
L 73.832727 307.584 
L 73.832727 307.584 
L 73.832727 307.584 
L 73.832727 307.584 
L 73.832727 307.584 
L 73.832727 307.584 
L 73.832727 307.584 
L 73.832727 307.584 
L 73.832727 307.584 
L 73.832727 307.584 
L 73.832727 307.584 
L 73.832727 307.584 
L 73.832727 307.584 
L 73.832727 307.584 
L 73.832727 307.584 
L 73.832727 307.584 
L 73.832727 307.584 
L 73.832727 307.584 
L 73.832727 307.584 
L 73.832727 307.584 
L 73.832727 307.584 
L 73.832727 307.584 
L 73.832727 307.584 
L 73.832727 307.584 
L 73.832727 307.584 
L 73.832727 307.584 
L 73.832727 307.584 
L 73.832727 307.584 
L 73.832727 307.584 
L 73.832727 307.584 
L 73.832727 307.584 
L 73.832727 307.584 
L 73.832727 307.584 
L 73.832727 307.584 
L 73.832727 307.584 
L 73.832727 307.584 
L 73.832727 307.584 
L 73.832727 307.584 
L 73.832727 307.584 
L 73.832727 307.584 
L 73.832727 307.584 
L 73.832727 307.584 
L 73.832727 307.584 
L 73.832727 307.584 
L 73.832727 307.584 
L 73.832727 307.584 
L 73.832727 307.584 
L 73.832727 307.584 
L 73.832727 307.584 
L 73.832727 307.584 
L 73.832727 307.584 
L 73.832727 307.584 
L 73.832727 307.584 
L 73.832727 307.584 
L 73.832727 307.584 
L 73.832727 307.584 
L 73.832727 307.584 
L 73.832727 307.584 
L 73.832727 307.584 
L 73.832727 307.584 
L 73.832727 307.584 
L 73.832727 307.584 
L 73.832727 307.584 
L 73.832727 307.584 
L 73.832727 307.584 
L 73.832727 307.584 
L 73.832727 307.584 
L 73.832727 307.584 
L 73.832727 307.584 
L 73.832727 307.584 
L 73.832727 307.584 
L 73.832727 307.584 
L 73.832727 307.584 
L 73.832727 307.584 
L 73.832727 307.584 
L 73.832727 307.584 
L 73.832727 307.584 
L 73.832727 307.584 
L 73.832727 307.584 
L 73.832727 307.584 
L 73.832727 307.584 
L 73.832727 307.584 
L 73.832727 307.584 
L 73.832727 307.584 
L 73.832727 307.584 
L 73.832727 307.584 
L 73.832727 307.584 
L 73.832727 307.584 
L 73.832727 307.584 
L 73.832727 307.584 
L 73.832727 307.584 
L 73.832727 307.584 
L 73.832727 307.584 
L 73.832727 307.584 
L 73.832727 307.584 
L 73.832727 307.584 
L 73.832727 307.584 
L 73.832727 307.584 
L 73.832727 307.584 
L 73.832727 307.584 
L 73.832727 307.584 
L 73.832727 307.584 
L 73.832727 307.584 
L 73.832727 307.584 
L 73.832727 307.584 
L 73.832727 307.584 
L 73.832727 307.584 
L 73.832727 307.584 
L 73.832727 307.584 
L 73.832727 307.584 
L 73.832727 307.584 
L 73.832727 307.584 
L 73.832727 307.584 
L 73.832727 307.584 
L 73.832727 307.584 
L 73.832727 307.584 
L 73.832727 307.584 
L 73.832727 307.584 
L 73.832727 307.584 
L 73.832727 307.584 
L 73.832727 307.584 
L 73.832727 307.584 
L 73.832727 307.584 
L 73.832727 307.584 
L 73.832727 307.584 
L 73.832727 307.584 
L 73.832727 307.584 
L 73.832727 307.584 
L 73.832727 307.584 
L 73.832727 307.584 
L 73.832727 307.584 
L 73.832727 307.584 
L 73.832727 307.584 
L 73.832727 307.584 
L 73.832727 307.584 
L 73.832727 307.584 
L 73.832727 307.584 
L 73.832727 307.584 
L 73.832727 307.584 
L 73.832727 307.584 
L 73.832727 307.584 
L 73.832727 307.584 
L 73.832727 307.584 
L 73.832727 307.584 
L 73.832727 307.584 
L 73.832727 307.584 
L 73.832727 307.584 
L 73.832727 307.584 
L 73.832727 307.584 
L 73.832727 307.584 
L 73.832727 307.584 
L 73.832727 307.584 
L 73.832727 307.584 
L 73.832727 307.584 
L 73.832727 307.584 
L 73.832727 307.584 
L 73.832727 307.584 
L 73.832727 307.584 
L 73.832727 307.584 
L 76.83552 307.584 
L 77.986777 307.584 
L 79.138034 307.584 
L 80.289292 307.584 
L 81.440549 307.584 
L 82.591806 307.584 
L 83.743063 307.584 
L 84.894321 307.584 
L 86.045578 307.584 
L 87.196835 307.584 
L 88.348092 307.584 
L 89.49935 307.584 
L 90.650607 307.584 
L 91.801864 307.584 
L 92.953121 307.584 
L 94.104379 307.584 
L 95.255636 307.584 
L 96.406893 307.584 
L 97.55815 307.584 
L 98.709408 307.584 
L 99.860665 307.584 
L 101.011922 307.584 
L 102.163179 307.584 
L 103.314437 307.584 
L 104.465694 307.584 
L 105.616951 307.584 
L 106.768208 307.584 
L 107.919466 307.584 
L 109.070723 307.584 
L 110.22198 307.584 
L 111.373237 307.584 
L 112.524495 307.584 
L 113.675752 307.584 
L 114.827009 307.584 
L 115.978266 307.584 
L 117.129524 307.584 
L 118.280781 307.584 
L 119.432038 307.584 
L 120.583295 307.584 
L 121.734553 307.584 
L 122.88581 307.584 
L 124.037067 307.584 
L 125.188324 307.584 
L 126.339582 307.584 
L 127.490839 307.584 
L 128.642096 307.584 
L 129.793353 307.584 
L 130.944611 307.584 
L 132.095868 307.584 
L 133.247125 307.584 
L 134.398382 307.584 
L 135.54964 307.584 
L 136.700897 307.584 
L 137.852154 307.584 
L 139.003411 307.584 
L 140.154669 307.584 
L 141.305926 307.584 
L 142.457183 307.584 
L 143.60844 307.584 
L 144.759698 307.584 
L 145.910955 307.584 
L 147.062212 307.584 
L 148.213469 307.584 
L 149.364727 307.584 
L 150.515984 307.584 
L 151.667241 307.584 
L 152.818498 307.584 
L 153.969756 307.584 
L 155.121013 307.584 
L 156.27227 307.584 
L 157.423528 307.584 
L 158.574785 307.584 
L 159.726042 307.584 
L 160.877299 307.584 
L 162.028557 307.584 
L 163.179814 307.584 
L 164.331071 307.584 
L 165.482328 307.584 
L 166.633586 307.584 
L 167.784843 307.584 
L 168.9361 307.584 
L 170.087357 307.584 
L 171.238615 307.584 
L 172.389872 307.584 
L 173.541129 307.584 
L 174.692386 307.584 
L 175.843644 307.584 
L 176.994901 307.584 
L 178.146158 307.584 
L 179.297415 307.584 
L 180.448673 307.584 
L 181.59993 307.584 
L 182.751187 307.584 
L 183.902444 307.584 
L 185.053702 307.584 
L 186.204959 307.584 
L 187.356216 307.584 
L 188.507473 307.584 
L 189.658731 307.584 
L 190.809988 307.584 
L 191.961245 307.584 
L 193.112502 307.584 
L 194.26376 307.584 
L 195.415017 307.584 
L 196.566274 307.584 
L 197.717531 307.584 
L 198.868789 307.584 
L 200.020046 307.584 
L 201.171303 307.584 
L 202.32256 307.584 
L 203.473818 307.584 
L 204.625075 307.584 
L 205.776332 307.584 
L 206.927589 307.584 
L 208.078847 307.584 
L 209.230104 307.584 
L 210.381361 307.584 
L 211.532618 307.584 
L 212.683876 307.584 
L 213.835133 307.584 
L 214.98639 307.584 
L 216.137647 307.584 
L 217.288905 307.584 
L 218.440162 307.584 
L 219.591419 307.584 
L 220.742676 307.584 
L 221.893934 307.584 
L 223.045191 307.584 
L 224.196448 307.584 
L 225.347705 307.584 
L 226.498963 307.584 
L 227.65022 307.584 
L 228.801477 307.584 
L 229.952734 307.584 
L 231.103992 307.584 
L 232.255249 307.584 
L 233.406506 307.584 
L 234.557763 307.584 
L 235.709021 307.584 
L 236.860278 307.584 
L 238.011535 307.584 
L 239.162792 307.584 
L 240.31405 307.584 
L 241.465307 307.584 
L 242.616564 307.584 
L 243.767822 307.584 
L 244.919079 307.584 
L 246.070336 307.584 
L 247.221593 307.584 
L 248.372851 307.584 
L 249.524108 307.584 
L 250.675365 307.584 
L 251.826622 307.584 
L 252.97788 307.584 
L 254.129137 307.584 
L 255.280394 307.584 
L 256.431651 307.584 
L 257.582909 307.584 
L 258.734166 307.584 
L 259.885423 307.584 
L 261.03668 307.584 
L 262.187938 307.584 
L 263.339195 307.584 
L 264.490452 307.584 
L 265.641709 307.584 
L 266.792967 307.584 
L 267.944224 307.584 
L 269.095481 307.584 
L 270.246738 307.584 
L 271.397996 307.584 
L 272.549253 307.584 
L 273.70051 307.584 
L 274.851767 307.584 
L 276.003025 307.584 
L 277.154282 307.584 
L 278.305539 307.584 
L 279.456796 307.584 
L 280.608054 307.584 
L 281.759311 307.584 
L 282.910568 307.584 
L 284.061825 307.584 
L 285.213083 307.584 
L 286.36434 307.584 
L 287.515597 307.584 
L 288.666854 307.584 
L 289.818112 307.584 
L 290.969369 307.584 
L 292.120626 307.584 
L 293.271883 307.584 
L 294.423141 307.584 
L 295.574398 307.584 
L 296.725655 307.584 
L 297.876912 307.584 
L 299.02817 307.584 
L 300.179427 307.584 
L 301.330684 307.584 
L 302.481941 307.584 
L 303.633199 307.584 
L 304.784456 307.584 
L 305.935713 307.584 
L 307.08697 307.584 
L 308.238228 307.584 
L 309.389485 307.584 
L 310.540742 307.584 
L 311.691999 307.584 
L 312.843257 307.584 
L 313.994514 307.584 
L 315.145771 307.584 
L 316.297028 307.584 
L 317.448286 307.584 
L 318.599543 307.584 
L 319.7508 307.584 
L 320.902057 307.584 
L 322.053315 307.584 
L 323.204572 307.584 
L 324.355829 307.584 
L 325.507086 307.584 
L 326.658344 307.584 
L 327.809601 307.584 
L 328.960858 307.584 
L 330.112116 307.584 
L 331.263373 307.584 
L 332.41463 307.584 
L 333.565887 307.584 
L 334.717145 307.584 
L 335.868402 307.584 
L 337.019659 307.584 
L 338.170916 307.584 
L 339.322174 307.584 
L 340.473431 307.584 
L 341.624688 307.584 
L 342.775945 307.584 
L 343.927203 307.584 
L 345.07846 307.584 
L 346.229717 307.584 
L 347.380974 307.584 
L 348.532232 307.584 
L 349.683489 307.584 
L 350.834746 307.584 
L 351.986003 307.584 
L 353.137261 307.584 
L 354.288518 307.584 
L 355.439775 307.584 
L 356.591032 307.584 
L 357.74229 307.584 
L 358.893547 307.584 
L 360.044804 307.584 
L 361.196061 307.584 
L 362.347319 307.584 
L 363.498576 307.584 
L 364.649833 307.584 
L 365.80109 307.584 
L 366.952348 307.584 
L 368.103605 307.584 
L 369.254862 307.584 
L 370.406119 307.584 
L 371.557377 307.584 
L 372.708634 307.584 
L 373.859891 307.584 
L 375.011148 307.584 
L 376.162406 307.584 
L 377.313663 307.584 
L 378.46492 307.584 
L 379.616177 307.584 
L 380.767435 307.584 
L 381.918692 307.584 
L 383.069949 307.584 
L 384.221206 307.584 
L 385.372464 307.584 
L 386.523721 307.584 
L 387.674978 307.584 
L 388.826235 307.584 
L 389.977493 307.584 
L 391.12875 307.584 
L 392.280007 307.584 
L 393.431264 307.584 
L 394.582522 307.584 
L 395.733779 307.584 
L 396.885036 307.584 
L 398.036293 307.584 
L 398.487273 307.584 
L 398.487273 307.584 
L 398.487273 307.584 
L 398.036293 307.584 
L 396.885036 307.584 
L 395.733779 307.584 
L 394.582522 307.584 
L 393.431264 307.584 
L 392.280007 307.584 
L 391.12875 307.584 
L 389.977493 307.584 
L 388.826235 307.584 
L 387.674978 307.584 
L 386.523721 307.584 
L 385.372464 307.584 
L 384.221206 307.584 
L 383.069949 307.583999 
L 381.918692 307.584 
L 380.767435 307.584 
L 379.616177 307.584 
L 378.46492 307.584 
L 377.313663 307.584 
L 376.162406 307.584 
L 375.011148 307.584 
L 373.859891 307.584 
L 372.708634 307.584 
L 371.557377 307.584 
L 370.406119 307.584 
L 369.254862 307.584 
L 368.103605 307.584 
L 366.952348 307.584 
L 365.80109 307.584 
L 364.649833 307.584 
L 363.498576 307.584 
L 362.347319 307.584 
L 361.196061 307.584 
L 360.044804 307.584 
L 358.893547 307.584 
L 357.74229 307.584 
L 356.591032 307.584 
L 355.439775 307.584 
L 354.288518 307.584 
L 353.137261 307.584 
L 351.986003 307.583999 
L 350.834746 307.584 
L 349.683489 307.584 
L 348.532232 307.584 
L 347.380974 307.584 
L 346.229717 307.584 
L 345.07846 307.584 
L 343.927203 307.584 
L 342.775945 307.584 
L 341.624688 307.584 
L 340.473431 307.584 
L 339.322174 307.584 
L 338.170916 307.584 
L 337.019659 307.584 
L 335.868402 307.584 
L 334.717145 307.584 
L 333.565887 307.584 
L 332.41463 307.583998 
L 331.263373 307.584 
L 330.112116 307.584 
L 328.960858 307.584 
L 327.809601 307.584 
L 326.658344 307.584 
L 325.507086 307.584 
L 324.355829 307.584 
L 323.204572 307.584 
L 322.053315 307.584 
L 320.902057 307.584 
L 319.7508 307.583996 
L 318.599543 307.584 
L 317.448286 307.584 
L 316.297028 307.584 
L 315.145771 307.584 
L 313.994514 307.584 
L 312.843257 307.584 
L 311.691999 307.584 
L 310.540742 307.583994 
L 309.389485 307.584 
L 308.238228 307.584 
L 307.08697 307.584 
L 305.935713 307.584 
L 304.784456 307.583991 
L 303.633199 307.584 
L 302.481941 307.584 
L 301.330684 307.584 
L 300.179427 307.583987 
L 299.02817 307.584 
L 297.876912 307.584 
L 296.725655 307.58398 
L 295.574398 307.584 
L 294.423141 307.58397 
L 293.271883 307.583954 
L 292.120626 307.583932 
L 290.969369 307.583899 
L 289.818112 307.58385 
L 288.666854 307.583781 
L 287.515597 307.58368 
L 286.36434 307.583538 
L 285.213083 307.583335 
L 284.061825 307.58305 
L 282.910568 307.582652 
L 281.759311 307.582098 
L 280.608054 307.581334 
L 279.456796 307.580287 
L 278.305539 307.578859 
L 277.154282 307.576927 
L 276.003025 307.574327 
L 274.851767 307.570851 
L 273.70051 307.566234 
L 272.549253 307.560137 
L 271.397996 307.552137 
L 270.246738 307.541704 
L 269.095481 307.528179 
L 267.944224 307.510752 
L 266.792967 307.488431 
L 265.641709 307.460013 
L 264.490452 307.424043 
L 263.339195 307.378781 
L 262.187938 307.322155 
L 261.03668 307.251721 
L 259.885423 307.164609 
L 258.734166 307.057479 
L 257.582909 306.926471 
L 256.431651 306.767153 
L 255.280394 306.574474 
L 254.129137 306.342724 
L 252.97788 306.065491 
L 251.826622 305.735631 
L 250.675365 305.345244 
L 249.524108 304.885667 
L 248.372851 304.347472 
L 247.221593 303.720482 
L 246.070336 302.993809 
L 244.919079 302.155907 
L 243.767822 301.19464 
L 242.616564 300.097382 
L 241.465307 298.851131 
L 240.31405 297.442643 
L 239.162792 295.858595 
L 238.011535 294.085761 
L 236.860278 292.111209 
L 235.709021 289.922508 
L 234.557763 287.507958 
L 233.406506 284.85682 
L 232.255249 281.959554 
L 231.103992 278.808055 
L 229.952734 275.395887 
L 228.801477 271.718508 
L 227.65022 267.773476 
L 226.498963 263.560643 
L 225.347705 259.082312 
L 224.196448 254.343381 
L 223.045191 249.351439 
L 221.893934 244.11684 
L 220.742676 238.652727 
L 219.591419 232.975022 
L 218.440162 227.102374 
L 217.288905 221.056063 
L 216.137647 214.859863 
L 214.98639 208.539875 
L 213.835133 202.124308 
L 212.683876 195.643241 
L 211.532618 189.12835 
L 210.381361 182.612604 
L 209.230104 176.129956 
L 208.078847 169.715003 
L 206.927589 163.402648 
L 205.776332 157.22775 
L 204.625075 151.22478 
L 203.473818 145.427484 
L 202.32256 139.868546 
L 201.171303 134.579282 
L 200.020046 129.589335 
L 198.868789 124.926402 
L 197.717531 120.615983 
L 196.566274 116.681149 
L 195.415017 113.142343 
L 194.26376 110.01721 
L 193.112502 107.320452 
L 191.961245 105.063718 
L 190.809988 103.255523 
L 189.658731 101.901209 
L 188.507473 101.002936 
L 187.356216 100.559716 
L 186.204959 100.56749 
L 185.053702 101.019253 
L 183.902444 101.905224 
L 182.751187 103.213071 
L 181.59993 104.92818 
L 180.448673 107.033984 
L 179.297415 109.512329 
L 178.146158 112.343884 
L 176.994901 115.508582 
L 175.843644 118.986079 
L 174.692386 122.756221 
L 173.541129 126.799499 
L 172.389872 131.097474 
L 171.238615 135.63317 
L 170.087357 140.391395 
L 168.9361 145.358999 
L 167.784843 150.525054 
L 166.633586 155.880943 
L 165.482328 161.420373 
L 164.331071 167.139298 
L 163.179814 173.035784 
L 162.028557 179.109801 
L 160.877299 185.362983 
L 159.726042 191.798345 
L 158.574785 198.419986 
L 157.423528 205.232786 
L 156.27227 212.2421 
L 155.121013 219.453452 
L 153.969756 226.872246 
L 152.818498 234.503468 
L 151.667241 242.3514 
L 150.515984 250.419333 
L 149.364727 258.70927 
L 148.213469 267.221632 
L 147.062212 275.95496 
L 145.910955 284.905605 
L 144.759698 294.067434 
L 143.60844 303.431537 
L 142.457183 312.985956 
L 141.305926 322.715438 
L 140.154669 332.601224 
L 139.003411 342.620896 
L 137.852154 352.74827 
L 136.700897 362.953362 
L 135.54964 373.202436 
L 134.398382 383.458124 
L 133.247125 393.679637 
L 132.095868 403.823071 
L 130.944611 413.841788 
L 129.793353 423.68689 
L 128.642096 433.307773 
L 127.490839 442.652737 
L 126.339582 451.669666 
L 125.188324 460.306743 
L 124.037067 468.513185 
L 122.88581 476.239995 
L 121.734553 483.440695 
L 120.583295 490.072022 
L 119.432038 496.094591 
L 118.280781 501.47347 
L 117.129524 506.178692 
L 115.978266 510.185663 
L 114.827009 513.47548 
L 113.675752 516.035132 
L 112.524495 517.857607 
L 111.373237 518.941894 
L 110.22198 519.292883 
L 109.070723 518.921185 
L 107.919466 517.842869 
L 106.768208 516.079136 
L 105.616951 513.655936 
L 104.465694 510.603545 
L 103.314437 506.956115 
L 102.163179 502.751202 
L 101.011922 498.029292 
L 99.860665 492.833323 
L 98.709408 487.20823 
L 97.55815 481.200497 
L 96.406893 474.857736 
L 95.255636 468.228291 
L 94.104379 461.360863 
L 92.953121 454.304157 
L 91.801864 447.106539 
L 90.650607 439.815698 
L 89.49935 432.478309 
L 88.348092 425.139683 
L 87.196835 417.843425 
L 86.045578 410.631096 
L 84.894321 403.541918 
L 83.743063 396.612539 
L 82.591806 389.877068 
L 81.440549 383.369925 
L 80.289292 377.162625 
L 79.138034 371.7567 
L 77.986777 371.832119 
L 76.83552 419.692244 
L 73.832727 307.225045 
L 73.832727 307.224807 
L 73.832727 307.224569 
L 73.832727 307.22433 
L 73.832727 307.224091 
L 73.832727 307.223851 
L 73.832727 307.223611 
L 73.832727 307.223371 
L 73.832727 307.22313 
L 73.832727 307.222889 
L 73.832727 307.222647 
L 73.832727 307.222405 
L 73.832727 307.222162 
L 73.832727 307.221919 
L 73.832727 307.221675 
L 73.832727 307.221431 
L 73.832727 307.221187 
L 73.832727 307.220942 
L 73.832727 307.220697 
L 73.832727 307.220451 
L 73.832727 307.220204 
L 73.832727 307.219958 
L 73.832727 307.219711 
L 73.832727 307.219463 
L 73.832727 307.219215 
L 73.832727 307.218966 
L 73.832727 307.218717 
L 73.832727 307.218468 
L 73.832727 307.218218 
L 73.832727 307.217968 
L 73.832727 307.217717 
L 73.832727 307.217466 
L 73.832727 307.217214 
L 73.832727 307.216962 
L 73.832727 307.216709 
L 73.832727 307.216456 
L 73.832727 307.216202 
L 73.832727 307.215948 
L 73.832727 307.215693 
L 73.832727 307.215438 
L 73.832727 307.215182 
L 73.832727 307.214926 
L 73.832727 307.21467 
L 73.832727 307.214413 
L 73.832727 307.214155 
L 73.832727 307.213897 
L 73.832727 307.213639 
L 73.832727 307.21338 
L 73.832727 307.21312 
L 73.832727 307.21286 
L 73.832727 307.2126 
L 73.832727 307.212339 
L 73.832727 307.212077 
L 73.832727 307.211815 
L 73.832727 307.211552 
L 73.832727 307.211289 
L 73.832727 307.211026 
L 73.832727 307.210762 
L 73.832727 307.210497 
L 73.832727 307.210232 
L 73.832727 307.209967 
L 73.832727 307.2097 
L 73.832727 307.209434 
L 73.832727 307.209167 
L 73.832727 307.208899 
L 73.832727 307.208631 
L 73.832727 307.208362 
L 73.832727 307.208093 
L 73.832727 307.207823 
L 73.832727 307.207553 
L 73.832727 307.207282 
L 73.832727 307.20701 
L 73.832727 307.206738 
L 73.832727 307.206466 
L 73.832727 307.206193 
L 73.832727 307.205919 
L 73.832727 307.205645 
L 73.832727 307.205371 
L 73.832727 307.205095 
L 73.832727 307.20482 
L 73.832727 307.204543 
L 73.832727 307.204266 
L 73.832727 307.203989 
L 73.832727 307.203711 
L 73.832727 307.203432 
L 73.832727 307.203153 
L 73.832727 307.202873 
L 73.832727 307.202593 
L 73.832727 307.202312 
L 73.832727 307.202031 
L 73.832727 307.201749 
L 73.832727 307.201466 
L 73.832727 307.201183 
L 73.832727 307.2009 
L 73.832727 307.200615 
L 73.832727 307.20033 
L 73.832727 307.200045 
L 73.832727 307.199759 
L 73.832727 307.199472 
L 73.832727 307.199185 
L 73.832727 307.198897 
L 73.832727 307.198609 
L 73.832727 307.19832 
L 73.832727 307.19803 
L 73.832727 307.19774 
L 73.832727 307.197449 
L 73.832727 307.197157 
L 73.832727 307.196865 
L 73.832727 307.196573 
L 73.832727 307.196279 
L 73.832727 307.195985 
L 73.832727 307.195691 
L 73.832727 307.195396 
L 73.832727 307.1951 
L 73.832727 307.194803 
L 73.832727 307.194506 
L 73.832727 307.194209 
L 73.832727 307.19391 
L 73.832727 307.193611 
L 73.832727 307.193312 
L 73.832727 307.193011 
L 73.832727 307.192711 
L 73.832727 307.192409 
L 73.832727 307.192107 
L 73.832727 307.191804 
L 73.832727 307.1915 
L 73.832727 307.191196 
L 73.832727 307.190891 
L 73.832727 307.190586 
L 73.832727 307.19028 
L 73.832727 307.189973 
L 73.832727 307.189665 
L 73.832727 307.189357 
L 73.832727 307.189048 
L 73.832727 307.188739 
L 73.832727 307.188429 
L 73.832727 307.188118 
L 73.832727 307.187806 
L 73.832727 307.187494 
L 73.832727 307.187181 
L 73.832727 307.186867 
L 73.832727 307.186553 
L 73.832727 307.186238 
L 73.832727 307.185922 
L 73.832727 307.185606 
L 73.832727 307.185288 
L 73.832727 307.18497 
L 73.832727 307.184652 
L 73.832727 307.184333 
L 73.832727 307.184012 
L 73.832727 307.183692 
L 73.832727 307.18337 
L 73.832727 307.183048 
L 73.832727 307.182725 
L 73.832727 307.182401 
L 73.832727 307.182077 
L 73.832727 307.181752 
L 73.832727 307.181426 
L 73.832727 307.181099 
L 73.832727 307.180772 
L 73.832727 307.180443 
L 73.832727 307.180115 
L 73.832727 307.179785 
L 73.832727 307.179454 
L 73.832727 307.179123 
L 73.832727 307.178791 
L 73.832727 307.178458 
L 73.832727 307.178125 
L 73.832727 307.17779 
L 73.832727 307.177455 
L 73.832727 307.177119 
L 73.832727 307.176783 
L 73.832727 307.176445 
L 73.832727 307.176107 
L 73.832727 307.175768 
L 73.832727 307.175428 
L 73.832727 307.175087 
L 73.832727 307.174746 
L 73.832727 307.174404 
L 73.832727 307.17406 
L 73.832727 307.173716 
L 73.832727 307.173372 
L 73.832727 307.173026 
L 73.832727 307.17268 
L 73.832727 307.172332 
L 73.832727 307.171984 
L 73.832727 307.171635 
L 73.832727 307.171286 
L 73.832727 307.170935 
L 73.832727 307.170583 
L 73.832727 307.170231 
L 73.832727 307.169878 
L 73.832727 307.169524 
L 73.832727 307.169169 
L 73.832727 307.168813 
L 73.832727 307.168456 
L 73.832727 307.168099 
L 73.832727 307.16774 
L 73.832727 307.167381 
L 73.832727 307.167021 
L 73.832727 307.166659 
L 73.832727 307.166297 
L 73.832727 307.165934 
L 73.832727 307.165571 
L 73.832727 307.165206 
L 73.832727 307.16484 
L 73.832727 307.164474 
L 73.832727 307.164106 
L 73.832727 307.163738 
L 73.832727 307.163368 
L 73.832727 307.162998 
L 73.832727 307.162627 
L 73.832727 307.162254 
L 73.832727 307.161881 
L 73.832727 307.161507 
z
" clip-path="url(#pe0c4452d7e)" style="fill: #808080; fill-opacity: 0.1"/>
   </g>
   <g id="PolyCollection_2">
    <path d="M 73.832727 307.578512 
L 73.832727 307.584 
L 73.832727 307.584 
L 73.832727 307.584 
L 73.832727 307.584 
L 73.832727 307.584 
L 73.832727 307.584 
L 73.832727 307.584 
L 73.832727 307.584 
L 73.832727 307.584 
L 73.832727 307.584 
L 73.832727 307.584 
L 73.832727 307.584 
L 73.832727 307.584 
L 73.832727 307.584 
L 73.832727 307.584 
L 73.832727 307.584 
L 73.832727 307.584 
L 73.832727 307.584 
L 73.832727 307.584 
L 73.832727 307.584 
L 73.832727 307.584 
L 73.832727 307.584 
L 73.832727 307.584 
L 73.832727 307.584 
L 73.832727 307.584 
L 73.832727 307.584 
L 73.832727 307.584 
L 73.832727 307.584 
L 73.832727 307.584 
L 73.832727 307.584 
L 73.832727 307.584 
L 73.832727 307.584 
L 73.832727 307.584 
L 73.832727 307.584 
L 73.832727 307.584 
L 73.832727 307.584 
L 73.832727 307.584 
L 73.832727 307.584 
L 73.832727 307.584 
L 73.832727 307.584 
L 73.832727 307.584 
L 73.832727 307.584 
L 73.832727 307.584 
L 73.832727 307.584 
L 73.832727 307.584 
L 73.832727 307.584 
L 73.832727 307.584 
L 73.832727 307.584 
L 73.832727 307.584 
L 73.832727 307.584 
L 73.832727 307.584 
L 73.832727 307.584 
L 73.832727 307.584 
L 73.832727 307.584 
L 73.832727 307.584 
L 73.832727 307.584 
L 73.832727 307.584 
L 73.832727 307.584 
L 73.832727 307.584 
L 73.832727 307.584 
L 73.832727 307.584 
L 73.832727 307.584 
L 73.832727 307.584 
L 73.832727 307.584 
L 73.832727 307.584 
L 73.832727 307.584 
L 73.832727 307.584 
L 73.832727 307.584 
L 73.832727 307.584 
L 73.832727 307.584 
L 73.832727 307.584 
L 73.832727 307.584 
L 73.832727 307.584 
L 73.832727 307.584 
L 73.832727 307.584 
L 73.832727 307.584 
L 73.832727 307.584 
L 73.832727 307.584 
L 73.832727 307.584 
L 73.832727 307.584 
L 73.832727 307.584 
L 73.832727 307.584 
L 73.832727 307.584 
L 73.832727 307.584 
L 73.832727 307.584 
L 73.832727 307.584 
L 73.832727 307.584 
L 73.832727 307.584 
L 73.832727 307.584 
L 73.832727 307.584 
L 73.832727 307.584 
L 73.832727 307.584 
L 73.832727 307.584 
L 73.832727 307.584 
L 73.832727 307.584 
L 73.832727 307.584 
L 73.832727 307.584 
L 73.832727 307.584 
L 73.832727 307.584 
L 73.832727 307.584 
L 73.832727 307.584 
L 73.832727 307.584 
L 73.832727 307.584 
L 73.832727 307.584 
L 73.832727 307.584 
L 73.832727 307.584 
L 73.832727 307.584 
L 73.832727 307.584 
L 73.832727 307.584 
L 73.832727 307.584 
L 73.832727 307.584 
L 73.832727 307.584 
L 73.832727 307.584 
L 73.832727 307.584 
L 73.832727 307.584 
L 73.832727 307.584 
L 73.832727 307.584 
L 73.832727 307.584 
L 73.832727 307.584 
L 73.832727 307.584 
L 73.832727 307.584 
L 73.832727 307.584 
L 73.832727 307.584 
L 73.832727 307.584 
L 73.832727 307.584 
L 73.832727 307.584 
L 73.832727 307.584 
L 73.832727 307.584 
L 73.832727 307.584 
L 73.832727 307.584 
L 73.832727 307.584 
L 73.832727 307.584 
L 73.832727 307.584 
L 73.832727 307.584 
L 73.832727 307.584 
L 73.832727 307.584 
L 73.832727 307.584 
L 73.832727 307.584 
L 73.832727 307.584 
L 73.832727 307.584 
L 73.832727 307.584 
L 73.832727 307.584 
L 73.832727 307.584 
L 73.832727 307.584 
L 73.832727 307.584 
L 73.832727 307.584 
L 73.832727 307.584 
L 73.832727 307.584 
L 73.832727 307.584 
L 73.832727 307.584 
L 73.832727 307.584 
L 73.832727 307.584 
L 73.832727 307.584 
L 73.832727 307.584 
L 73.832727 307.584 
L 73.832727 307.584 
L 73.832727 307.584 
L 73.832727 307.584 
L 73.832727 307.584 
L 73.832727 307.584 
L 73.832727 307.584 
L 73.832727 307.584 
L 73.832727 307.584 
L 73.832727 307.584 
L 73.832727 307.584 
L 73.832727 307.584 
L 73.832727 307.584 
L 73.832727 307.584 
L 73.832727 307.584 
L 73.832727 307.584 
L 73.832727 307.584 
L 73.832727 307.584 
L 73.832727 307.584 
L 73.832727 307.584 
L 73.832727 307.584 
L 73.832727 307.584 
L 73.832727 307.584 
L 73.832727 307.584 
L 73.832727 307.584 
L 73.832727 307.584 
L 73.832727 307.584 
L 73.832727 307.584 
L 73.832727 307.584 
L 73.832727 307.584 
L 73.832727 307.584 
L 73.832727 307.584 
L 73.832727 307.584 
L 73.832727 307.584 
L 73.832727 307.584 
L 73.832727 307.584 
L 73.832727 307.584 
L 73.832727 307.584 
L 73.832727 307.584 
L 73.832727 307.584 
L 73.832727 307.584 
L 73.832727 307.584 
L 73.832727 307.584 
L 73.832727 307.584 
L 73.832727 307.584 
L 73.832727 307.584 
L 73.832727 307.584 
L 73.832727 307.584 
L 73.832727 307.584 
L 73.832727 307.584 
L 73.832727 307.584 
L 73.832727 307.584 
L 73.832727 307.584 
L 73.832727 307.584 
L 73.832727 307.584 
L 73.832727 307.584 
L 73.832727 307.584 
L 73.832727 307.584 
L 73.832727 307.584 
L 73.832727 307.584 
L 73.832727 307.584 
L 76.83552 307.584 
L 77.986777 307.584 
L 79.138034 307.584 
L 80.289292 307.584 
L 81.440549 307.584 
L 82.591806 307.584 
L 83.743063 307.584 
L 84.894321 307.584 
L 86.045578 307.584 
L 87.196835 307.584 
L 88.348092 307.584 
L 89.49935 307.584 
L 90.650607 307.584 
L 91.801864 307.584 
L 92.953121 307.584 
L 94.104379 307.584 
L 95.255636 307.584 
L 96.406893 307.584 
L 97.55815 307.584 
L 98.709408 307.584 
L 99.860665 307.584 
L 101.011922 307.584 
L 102.163179 307.584 
L 103.314437 307.584 
L 104.465694 307.584 
L 105.616951 307.584 
L 106.768208 307.584 
L 107.919466 307.584 
L 109.070723 307.584 
L 110.22198 307.584 
L 111.373237 307.584 
L 112.524495 307.584 
L 113.675752 307.584 
L 114.827009 307.584 
L 115.978266 307.584 
L 117.129524 307.584 
L 118.280781 307.584 
L 119.432038 307.584 
L 120.583295 307.584 
L 121.734553 307.584 
L 122.88581 307.584 
L 124.037067 307.584 
L 125.188324 307.584 
L 126.339582 307.584 
L 127.490839 307.584 
L 128.642096 307.584 
L 129.793353 307.584 
L 130.944611 307.584 
L 132.095868 307.584 
L 133.247125 307.584 
L 134.398382 307.584 
L 135.54964 307.584 
L 136.700897 307.584 
L 137.852154 307.584 
L 139.003411 307.584 
L 140.154669 307.584 
L 141.305926 307.584 
L 142.457183 307.584 
L 143.60844 307.584 
L 144.759698 307.584 
L 145.910955 307.584 
L 147.062212 307.584 
L 148.213469 307.584 
L 149.364727 307.584 
L 150.515984 307.584 
L 151.667241 307.584 
L 152.818498 307.584 
L 153.969756 307.584 
L 155.121013 307.584 
L 156.27227 307.584 
L 157.423528 307.584 
L 158.574785 307.584 
L 159.726042 307.584 
L 160.877299 307.584 
L 162.028557 307.584 
L 163.179814 307.584 
L 164.331071 307.584 
L 165.482328 307.584 
L 166.633586 307.584 
L 167.784843 307.584 
L 168.9361 307.584 
L 170.087357 307.584 
L 171.238615 307.584 
L 172.389872 307.584 
L 173.541129 307.584 
L 174.692386 307.584 
L 175.843644 307.584 
L 176.994901 307.584 
L 178.146158 307.584 
L 179.297415 307.584 
L 180.448673 307.584 
L 181.59993 307.584 
L 182.751187 307.584 
L 183.902444 307.584 
L 185.053702 307.584 
L 186.204959 307.584 
L 187.356216 307.584 
L 188.507473 307.584 
L 189.658731 307.584 
L 190.809988 307.584 
L 191.961245 307.584 
L 193.112502 307.584 
L 194.26376 307.584 
L 195.415017 307.584 
L 196.566274 307.584 
L 197.717531 307.584 
L 198.868789 307.584 
L 200.020046 307.584 
L 201.171303 307.584 
L 202.32256 307.584 
L 203.473818 307.584 
L 204.625075 307.584 
L 205.776332 307.584 
L 206.927589 307.584 
L 208.078847 307.584 
L 209.230104 307.584 
L 210.381361 307.584 
L 211.532618 307.584 
L 212.683876 307.584 
L 213.835133 307.584 
L 214.98639 307.584 
L 216.137647 307.584 
L 217.288905 307.584 
L 218.440162 307.584 
L 219.591419 307.584 
L 220.742676 307.584 
L 221.893934 307.584 
L 223.045191 307.584 
L 224.196448 307.584 
L 225.347705 307.584 
L 226.498963 307.584 
L 227.65022 307.584 
L 228.801477 307.584 
L 229.952734 307.584 
L 231.103992 307.584 
L 232.255249 307.584 
L 233.406506 307.584 
L 234.557763 307.584 
L 235.709021 307.584 
L 236.860278 307.584 
L 238.011535 307.584 
L 239.162792 307.584 
L 240.31405 307.584 
L 241.465307 307.584 
L 242.616564 307.584 
L 243.767822 307.584 
L 244.919079 307.584 
L 246.070336 307.584 
L 247.221593 307.584 
L 248.372851 307.584 
L 249.524108 307.584 
L 250.675365 307.584 
L 251.826622 307.584 
L 252.97788 307.584 
L 254.129137 307.584 
L 255.280394 307.584 
L 256.431651 307.584 
L 257.582909 307.584 
L 258.734166 307.584 
L 259.885423 307.584 
L 261.03668 307.584 
L 262.187938 307.584 
L 263.339195 307.584 
L 264.490452 307.584 
L 265.641709 307.584 
L 266.792967 307.584 
L 267.944224 307.584 
L 269.095481 307.584 
L 270.246738 307.584 
L 271.397996 307.584 
L 272.549253 307.584 
L 273.70051 307.584 
L 274.851767 307.584 
L 276.003025 307.584 
L 277.154282 307.584 
L 278.305539 307.584 
L 279.456796 307.584 
L 280.608054 307.584 
L 281.759311 307.584 
L 282.910568 307.584 
L 284.061825 307.584 
L 285.213083 307.584 
L 286.36434 307.584 
L 287.515597 307.584 
L 288.666854 307.584 
L 289.818112 307.584 
L 290.969369 307.584 
L 292.120626 307.584 
L 293.271883 307.584 
L 294.423141 307.584 
L 295.574398 307.584 
L 296.725655 307.584 
L 297.876912 307.584 
L 299.02817 307.584 
L 300.179427 307.584 
L 301.330684 307.584 
L 302.481941 307.584 
L 303.633199 307.584 
L 304.784456 307.584 
L 305.935713 307.584 
L 307.08697 307.584 
L 308.238228 307.584 
L 309.389485 307.584 
L 310.540742 307.584 
L 311.691999 307.584 
L 312.843257 307.584 
L 313.994514 307.584 
L 315.145771 307.584 
L 316.297028 307.584 
L 317.448286 307.584 
L 318.599543 307.584 
L 319.7508 307.584 
L 320.902057 307.584 
L 322.053315 307.584 
L 323.204572 307.584 
L 324.355829 307.584 
L 325.507086 307.584 
L 326.658344 307.584 
L 327.809601 307.584 
L 328.960858 307.584 
L 330.112116 307.584 
L 331.263373 307.584 
L 332.41463 307.584 
L 333.565887 307.584 
L 334.717145 307.584 
L 335.868402 307.584 
L 337.019659 307.584 
L 338.170916 307.584 
L 339.322174 307.584 
L 340.473431 307.584 
L 341.624688 307.584 
L 342.775945 307.584 
L 343.927203 307.584 
L 345.07846 307.584 
L 346.229717 307.584 
L 347.380974 307.584 
L 348.532232 307.584 
L 349.683489 307.584 
L 350.834746 307.584 
L 351.986003 307.584 
L 353.137261 307.584 
L 354.288518 307.584 
L 355.439775 307.584 
L 356.591032 307.584 
L 357.74229 307.584 
L 358.893547 307.584 
L 360.044804 307.584 
L 361.196061 307.584 
L 362.347319 307.584 
L 363.498576 307.584 
L 364.649833 307.584 
L 365.80109 307.584 
L 366.952348 307.584 
L 368.103605 307.584 
L 369.254862 307.584 
L 370.406119 307.584 
L 371.557377 307.584 
L 372.708634 307.584 
L 373.859891 307.584 
L 375.011148 307.584 
L 376.162406 307.584 
L 377.313663 307.584 
L 378.46492 307.584 
L 379.616177 307.584 
L 380.767435 307.584 
L 381.918692 307.584 
L 383.069949 307.584 
L 384.221206 307.584 
L 385.372464 307.584 
L 386.523721 307.584 
L 387.674978 307.584 
L 388.826235 307.584 
L 389.977493 307.584 
L 391.12875 307.584 
L 392.280007 307.584 
L 393.431264 307.584 
L 394.582522 307.584 
L 395.733779 307.584 
L 396.885036 307.584 
L 398.036293 307.584 
L 398.487273 307.584 
L 398.487273 307.584 
L 398.487273 307.584 
L 398.036293 307.584 
L 396.885036 307.584 
L 395.733779 307.584 
L 394.582522 307.584 
L 393.431264 307.584 
L 392.280007 307.584 
L 391.12875 307.584 
L 389.977493 307.584 
L 388.826235 307.584 
L 387.674978 307.584 
L 386.523721 307.584 
L 385.372464 307.584 
L 384.221206 307.584 
L 383.069949 307.584 
L 381.918692 307.584 
L 380.767435 307.584 
L 379.616177 307.584 
L 378.46492 307.584 
L 377.313663 307.584 
L 376.162406 307.584 
L 375.011148 307.584 
L 373.859891 307.584 
L 372.708634 307.584 
L 371.557377 307.584 
L 370.406119 307.584 
L 369.254862 307.584 
L 368.103605 307.584 
L 366.952348 307.584 
L 365.80109 307.584 
L 364.649833 307.584 
L 363.498576 307.584 
L 362.347319 307.584 
L 361.196061 307.584 
L 360.044804 307.584 
L 358.893547 307.584 
L 357.74229 307.584 
L 356.591032 307.584 
L 355.439775 307.584 
L 354.288518 307.584 
L 353.137261 307.584 
L 351.986003 307.584 
L 350.834746 307.584 
L 349.683489 307.584 
L 348.532232 307.584 
L 347.380974 307.584 
L 346.229717 307.584 
L 345.07846 307.584 
L 343.927203 307.584 
L 342.775945 307.584 
L 341.624688 307.584 
L 340.473431 307.584 
L 339.322174 307.584 
L 338.170916 307.584 
L 337.019659 307.584 
L 335.868402 307.584 
L 334.717145 307.584 
L 333.565887 307.584 
L 332.41463 307.584 
L 331.263373 307.584 
L 330.112116 307.584 
L 328.960858 307.584 
L 327.809601 307.584 
L 326.658344 307.584 
L 325.507086 307.584 
L 324.355829 307.584 
L 323.204572 307.584 
L 322.053315 307.584 
L 320.902057 307.584 
L 319.7508 307.584 
L 318.599543 307.584 
L 317.448286 307.584 
L 316.297028 307.584 
L 315.145771 307.584 
L 313.994514 307.584 
L 312.843257 307.584 
L 311.691999 307.584 
L 310.540742 307.584 
L 309.389485 307.584 
L 308.238228 307.584 
L 307.08697 307.584 
L 305.935713 307.584 
L 304.784456 307.584 
L 303.633199 307.584 
L 302.481941 307.584 
L 301.330684 307.584 
L 300.179427 307.584 
L 299.02817 307.584 
L 297.876912 307.584 
L 296.725655 307.584 
L 295.574398 307.584 
L 294.423141 307.584 
L 293.271883 307.584 
L 292.120626 307.584 
L 290.969369 307.584 
L 289.818112 307.584 
L 288.666854 307.584 
L 287.515597 307.584 
L 286.36434 307.584 
L 285.213083 307.584 
L 284.061825 307.583999 
L 282.910568 307.583999 
L 281.759311 307.583999 
L 280.608054 307.583998 
L 279.456796 307.583997 
L 278.305539 307.583996 
L 277.154282 307.583994 
L 276.003025 307.583991 
L 274.851767 307.583988 
L 273.70051 307.583983 
L 272.549253 307.583976 
L 271.397996 307.583967 
L 270.246738 307.583955 
L 269.095481 307.583939 
L 267.944224 307.583918 
L 266.792967 307.583889 
L 265.641709 307.583851 
L 264.490452 307.583802 
L 263.339195 307.583737 
L 262.187938 307.583653 
L 261.03668 307.583545 
L 259.885423 307.583406 
L 258.734166 307.583228 
L 257.582909 307.583002 
L 256.431651 307.582716 
L 255.280394 307.582356 
L 254.129137 307.581905 
L 252.97788 307.581342 
L 251.826622 307.580645 
L 250.675365 307.579783 
L 249.524108 307.578725 
L 248.372851 307.57743 
L 247.221593 307.575854 
L 246.070336 307.573943 
L 244.919079 307.571636 
L 243.767822 307.568863 
L 242.616564 307.565546 
L 241.465307 307.561593 
L 240.31405 307.556902 
L 239.162792 307.551357 
L 238.011535 307.54483 
L 236.860278 307.537175 
L 235.709021 307.528233 
L 234.557763 307.517826 
L 233.406506 307.505758 
L 232.255249 307.491815 
L 231.103992 307.475763 
L 229.952734 307.457345 
L 228.801477 307.436283 
L 227.65022 307.412278 
L 226.498963 307.385005 
L 225.347705 307.354117 
L 224.196448 307.319239 
L 223.045191 307.279974 
L 221.893934 307.235896 
L 220.742676 307.186554 
L 219.591419 307.131468 
L 218.440162 307.070131 
L 217.288905 307.002006 
L 216.137647 306.926529 
L 214.98639 306.843103 
L 213.835133 306.751101 
L 212.683876 306.649865 
L 211.532618 306.538701 
L 210.381361 306.416884 
L 209.230104 306.283651 
L 208.078847 306.1382 
L 206.927589 305.97969 
L 205.776332 305.807239 
L 204.625075 305.619918 
L 203.473818 305.41675 
L 202.32256 305.196708 
L 201.171303 304.958706 
L 200.020046 304.701602 
L 198.868789 304.424184 
L 197.717531 304.125172 
L 196.566274 303.803207 
L 195.415017 303.456846 
L 194.26376 303.084553 
L 193.112502 302.684689 
L 191.961245 302.255505 
L 190.809988 301.795126 
L 189.658731 301.301546 
L 188.507473 300.772606 
L 187.356216 300.205986 
L 186.204959 299.599187 
L 185.053702 298.949511 
L 183.902444 298.254049 
L 182.751187 297.509657 
L 181.59993 296.712939 
L 180.448673 295.860228 
L 179.297415 294.947564 
L 178.146158 293.970679 
L 176.994901 292.924978 
L 175.843644 291.805521 
L 174.692386 290.607015 
L 173.541129 289.3238 
L 172.389872 287.949846 
L 171.238615 286.478745 
L 170.087357 284.903722 
L 168.9361 283.217637 
L 167.784843 281.413002 
L 166.633586 279.482 
L 165.482328 277.416514 
L 164.331071 275.208161 
L 163.179814 272.848339 
L 162.028557 270.32828 
L 160.877299 267.639114 
L 159.726042 264.771947 
L 158.574785 261.717953 
L 157.423528 258.468481 
L 156.27227 255.015177 
L 155.121013 251.350127 
L 153.969756 247.466018 
L 152.818498 243.356315 
L 151.667241 239.015467 
L 150.515984 234.439117 
L 149.364727 229.624347 
L 148.213469 224.569917 
L 147.062212 219.276532 
L 145.910955 213.747104 
L 144.759698 207.987013 
L 143.60844 202.004367 
L 142.457183 195.810239 
L 141.305926 189.418882 
L 140.154669 182.847913 
L 139.003411 176.118442 
L 137.852154 169.255163 
L 136.700897 162.286371 
L 135.54964 155.243918 
L 134.398382 148.163083 
L 133.247125 141.08237 
L 132.095868 134.043219 
L 130.944611 127.089637 
L 129.793353 120.267742 
L 128.642096 113.625246 
L 127.490839 107.210863 
L 126.339582 101.07367 
L 125.188324 95.262427 
L 124.037067 89.824881 
L 122.88581 84.807056 
L 121.734553 80.252569 
L 120.583295 76.201968 
L 119.432038 72.692122 
L 118.280781 69.755681 
L 117.129524 67.420601 
L 115.978266 65.709767 
L 114.827009 64.640702 
L 113.675752 64.225375 
L 112.524495 64.470108 
L 111.373237 65.375569 
L 110.22198 66.93686 
L 109.070723 69.143683 
L 107.919466 71.98058 
L 106.768208 75.427231 
L 105.616951 79.458805 
L 104.465694 84.04636 
L 103.314437 89.15726 
L 102.163179 94.755626 
L 101.011922 100.802792 
L 99.860665 107.257758 
L 98.709408 114.077652 
L 97.55815 121.218163 
L 96.406893 128.633965 
L 95.255636 136.279127 
L 94.104379 144.107495 
L 92.953121 152.07306 
L 91.801864 160.130308 
L 90.650607 168.234542 
L 89.49935 176.342154 
L 88.348092 184.410785 
L 87.196835 192.399295 
L 86.045578 200.267439 
L 84.894321 207.975328 
L 83.743063 215.482983 
L 82.591806 222.750402 
L 81.440549 229.735979 
L 80.289292 236.361936 
L 79.138034 242.123582 
L 77.986777 242.342337 
L 76.83552 194.725931 
L 73.832727 307.583439 
L 73.832727 307.583423 
L 73.832727 307.583407 
L 73.832727 307.58339 
L 73.832727 307.583374 
L 73.832727 307.583358 
L 73.832727 307.583341 
L 73.832727 307.583325 
L 73.832727 307.583308 
L 73.832727 307.583292 
L 73.832727 307.583275 
L 73.832727 307.583259 
L 73.832727 307.583242 
L 73.832727 307.583225 
L 73.832727 307.583208 
L 73.832727 307.583192 
L 73.832727 307.583175 
L 73.832727 307.583158 
L 73.832727 307.583141 
L 73.832727 307.583124 
L 73.832727 307.583107 
L 73.832727 307.583089 
L 73.832727 307.583072 
L 73.832727 307.583055 
L 73.832727 307.583038 
L 73.832727 307.58302 
L 73.832727 307.583003 
L 73.832727 307.582986 
L 73.832727 307.582968 
L 73.832727 307.58295 
L 73.832727 307.582933 
L 73.832727 307.582915 
L 73.832727 307.582897 
L 73.832727 307.58288 
L 73.832727 307.582862 
L 73.832727 307.582844 
L 73.832727 307.582826 
L 73.832727 307.582808 
L 73.832727 307.58279 
L 73.832727 307.582772 
L 73.832727 307.582754 
L 73.832727 307.582736 
L 73.832727 307.582717 
L 73.832727 307.582699 
L 73.832727 307.582681 
L 73.832727 307.582662 
L 73.832727 307.582644 
L 73.832727 307.582625 
L 73.832727 307.582607 
L 73.832727 307.582588 
L 73.832727 307.582569 
L 73.832727 307.58255 
L 73.832727 307.582532 
L 73.832727 307.582513 
L 73.832727 307.582494 
L 73.832727 307.582475 
L 73.832727 307.582456 
L 73.832727 307.582437 
L 73.832727 307.582417 
L 73.832727 307.582398 
L 73.832727 307.582379 
L 73.832727 307.582359 
L 73.832727 307.58234 
L 73.832727 307.582321 
L 73.832727 307.582301 
L 73.832727 307.582281 
L 73.832727 307.582262 
L 73.832727 307.582242 
L 73.832727 307.582222 
L 73.832727 307.582202 
L 73.832727 307.582182 
L 73.832727 307.582162 
L 73.832727 307.582142 
L 73.832727 307.582122 
L 73.832727 307.582102 
L 73.832727 307.582082 
L 73.832727 307.582062 
L 73.832727 307.582041 
L 73.832727 307.582021 
L 73.832727 307.582 
L 73.832727 307.58198 
L 73.832727 307.581959 
L 73.832727 307.581938 
L 73.832727 307.581918 
L 73.832727 307.581897 
L 73.832727 307.581876 
L 73.832727 307.581855 
L 73.832727 307.581834 
L 73.832727 307.581813 
L 73.832727 307.581792 
L 73.832727 307.581771 
L 73.832727 307.581749 
L 73.832727 307.581728 
L 73.832727 307.581707 
L 73.832727 307.581685 
L 73.832727 307.581664 
L 73.832727 307.581642 
L 73.832727 307.58162 
L 73.832727 307.581598 
L 73.832727 307.581577 
L 73.832727 307.581555 
L 73.832727 307.581533 
L 73.832727 307.581511 
L 73.832727 307.581489 
L 73.832727 307.581466 
L 73.832727 307.581444 
L 73.832727 307.581422 
L 73.832727 307.581399 
L 73.832727 307.581377 
L 73.832727 307.581354 
L 73.832727 307.581332 
L 73.832727 307.581309 
L 73.832727 307.581286 
L 73.832727 307.581263 
L 73.832727 307.58124 
L 73.832727 307.581217 
L 73.832727 307.581194 
L 73.832727 307.581171 
L 73.832727 307.581148 
L 73.832727 307.581125 
L 73.832727 307.581101 
L 73.832727 307.581078 
L 73.832727 307.581054 
L 73.832727 307.58103 
L 73.832727 307.581007 
L 73.832727 307.580983 
L 73.832727 307.580959 
L 73.832727 307.580935 
L 73.832727 307.580911 
L 73.832727 307.580887 
L 73.832727 307.580863 
L 73.832727 307.580839 
L 73.832727 307.580814 
L 73.832727 307.58079 
L 73.832727 307.580765 
L 73.832727 307.580741 
L 73.832727 307.580716 
L 73.832727 307.580691 
L 73.832727 307.580667 
L 73.832727 307.580642 
L 73.832727 307.580617 
L 73.832727 307.580592 
L 73.832727 307.580566 
L 73.832727 307.580541 
L 73.832727 307.580516 
L 73.832727 307.58049 
L 73.832727 307.580465 
L 73.832727 307.580439 
L 73.832727 307.580414 
L 73.832727 307.580388 
L 73.832727 307.580362 
L 73.832727 307.580336 
L 73.832727 307.58031 
L 73.832727 307.580284 
L 73.832727 307.580258 
L 73.832727 307.580231 
L 73.832727 307.580205 
L 73.832727 307.580178 
L 73.832727 307.580152 
L 73.832727 307.580125 
L 73.832727 307.580098 
L 73.832727 307.580072 
L 73.832727 307.580045 
L 73.832727 307.580018 
L 73.832727 307.579991 
L 73.832727 307.579963 
L 73.832727 307.579936 
L 73.832727 307.579909 
L 73.832727 307.579881 
L 73.832727 307.579854 
L 73.832727 307.579826 
L 73.832727 307.579798 
L 73.832727 307.57977 
L 73.832727 307.579742 
L 73.832727 307.579714 
L 73.832727 307.579686 
L 73.832727 307.579658 
L 73.832727 307.57963 
L 73.832727 307.579601 
L 73.832727 307.579573 
L 73.832727 307.579544 
L 73.832727 307.579515 
L 73.832727 307.579487 
L 73.832727 307.579458 
L 73.832727 307.579429 
L 73.832727 307.5794 
L 73.832727 307.57937 
L 73.832727 307.579341 
L 73.832727 307.579312 
L 73.832727 307.579282 
L 73.832727 307.579253 
L 73.832727 307.579223 
L 73.832727 307.579193 
L 73.832727 307.579163 
L 73.832727 307.579133 
L 73.832727 307.579103 
L 73.832727 307.579073 
L 73.832727 307.579043 
L 73.832727 307.579012 
L 73.832727 307.578982 
L 73.832727 307.578951 
L 73.832727 307.57892 
L 73.832727 307.57889 
L 73.832727 307.578859 
L 73.832727 307.578828 
L 73.832727 307.578797 
L 73.832727 307.578765 
L 73.832727 307.578734 
L 73.832727 307.578703 
L 73.832727 307.578671 
L 73.832727 307.57864 
L 73.832727 307.578608 
L 73.832727 307.578576 
L 73.832727 307.578544 
L 73.832727 307.578512 
z
" clip-path="url(#pe0c4452d7e)" style="fill: #808080; fill-opacity: 0.1"/>
   </g>
   <g id="matplotlib.axis_1">
    <g id="xtick_1">
     <g id="line2d_1">
      <defs>
       <path id="m0b07ee2052" d="M 0 0 
L 0 3.5 
" style="stroke: #000000; stroke-width: 0.8"/>
      </defs>
      <g>
       <use xlink:href="#m0b07ee2052" x="76.135242" y="307.584" style="stroke: #000000; stroke-width: 0.8"/>
      </g>
     </g>
     <g id="text_1">
      <!-- 300 -->
      <g transform="translate(66.591492 322.182437)scale(0.1 -0.1)">
       <defs>
        <path id="DejaVuSans-33" d="M 2597 2516 
Q 3050 2419 3304 2112 
Q 3559 1806 3559 1356 
Q 3559 666 3084 287 
Q 2609 -91 1734 -91 
Q 1441 -91 1130 -33 
Q 819 25 488 141 
L 488 750 
Q 750 597 1062 519 
Q 1375 441 1716 441 
Q 2309 441 2620 675 
Q 2931 909 2931 1356 
Q 2931 1769 2642 2001 
Q 2353 2234 1838 2234 
L 1294 2234 
L 1294 2753 
L 1863 2753 
Q 2328 2753 2575 2939 
Q 2822 3125 2822 3475 
Q 2822 3834 2567 4026 
Q 2313 4219 1838 4219 
Q 1578 4219 1281 4162 
Q 984 4106 628 3988 
L 628 4550 
Q 988 4650 1302 4700 
Q 1616 4750 1894 4750 
Q 2613 4750 3031 4423 
Q 3450 4097 3450 3541 
Q 3450 3153 3228 2886 
Q 3006 2619 2597 2516 
z
" transform="scale(0.015625)"/>
        <path id="DejaVuSans-30" d="M 2034 4250 
Q 1547 4250 1301 3770 
Q 1056 3291 1056 2328 
Q 1056 1369 1301 889 
Q 1547 409 2034 409 
Q 2525 409 2770 889 
Q 3016 1369 3016 2328 
Q 3016 3291 2770 3770 
Q 2525 4250 2034 4250 
z
M 2034 4750 
Q 2819 4750 3233 4129 
Q 3647 3509 3647 2328 
Q 3647 1150 3233 529 
Q 2819 -91 2034 -91 
Q 1250 -91 836 529 
Q 422 1150 422 2328 
Q 422 3509 836 4129 
Q 1250 4750 2034 4750 
z
" transform="scale(0.015625)"/>
       </defs>
       <use xlink:href="#DejaVuSans-33"/>
       <use xlink:href="#DejaVuSans-30" x="63.623047"/>
       <use xlink:href="#DejaVuSans-30" x="127.246094"/>
      </g>
     </g>
    </g>
    <g id="xtick_2">
     <g id="line2d_2">
      <g>
       <use xlink:href="#m0b07ee2052" x="122.185532" y="307.584" style="stroke: #000000; stroke-width: 0.8"/>
      </g>
     </g>
     <g id="text_2">
      <!-- 400 -->
      <g transform="translate(112.641782 322.182437)scale(0.1 -0.1)">
       <defs>
        <path id="DejaVuSans-34" d="M 2419 4116 
L 825 1625 
L 2419 1625 
L 2419 4116 
z
M 2253 4666 
L 3047 4666 
L 3047 1625 
L 3713 1625 
L 3713 1100 
L 3047 1100 
L 3047 0 
L 2419 0 
L 2419 1100 
L 313 1100 
L 313 1709 
L 2253 4666 
z
" transform="scale(0.015625)"/>
       </defs>
       <use xlink:href="#DejaVuSans-34"/>
       <use xlink:href="#DejaVuSans-30" x="63.623047"/>
       <use xlink:href="#DejaVuSans-30" x="127.246094"/>
      </g>
     </g>
    </g>
    <g id="xtick_3">
     <g id="line2d_3">
      <g>
       <use xlink:href="#m0b07ee2052" x="168.235822" y="307.584" style="stroke: #000000; stroke-width: 0.8"/>
      </g>
     </g>
     <g id="text_3">
      <!-- 500 -->
      <g transform="translate(158.692072 322.182437)scale(0.1 -0.1)">
       <defs>
        <path id="DejaVuSans-35" d="M 691 4666 
L 3169 4666 
L 3169 4134 
L 1269 4134 
L 1269 2991 
Q 1406 3038 1543 3061 
Q 1681 3084 1819 3084 
Q 2600 3084 3056 2656 
Q 3513 2228 3513 1497 
Q 3513 744 3044 326 
Q 2575 -91 1722 -91 
Q 1428 -91 1123 -41 
Q 819 9 494 109 
L 494 744 
Q 775 591 1075 516 
Q 1375 441 1709 441 
Q 2250 441 2565 725 
Q 2881 1009 2881 1497 
Q 2881 1984 2565 2268 
Q 2250 2553 1709 2553 
Q 1456 2553 1204 2497 
Q 953 2441 691 2322 
L 691 4666 
z
" transform="scale(0.015625)"/>
       </defs>
       <use xlink:href="#DejaVuSans-35"/>
       <use xlink:href="#DejaVuSans-30" x="63.623047"/>
       <use xlink:href="#DejaVuSans-30" x="127.246094"/>
      </g>
     </g>
    </g>
    <g id="xtick_4">
     <g id="line2d_4">
      <g>
       <use xlink:href="#m0b07ee2052" x="214.286112" y="307.584" style="stroke: #000000; stroke-width: 0.8"/>
      </g>
     </g>
     <g id="text_4">
      <!-- 600 -->
      <g transform="translate(204.742362 322.182437)scale(0.1 -0.1)">
       <defs>
        <path id="DejaVuSans-36" d="M 2113 2584 
Q 1688 2584 1439 2293 
Q 1191 2003 1191 1497 
Q 1191 994 1439 701 
Q 1688 409 2113 409 
Q 2538 409 2786 701 
Q 3034 994 3034 1497 
Q 3034 2003 2786 2293 
Q 2538 2584 2113 2584 
z
M 3366 4563 
L 3366 3988 
Q 3128 4100 2886 4159 
Q 2644 4219 2406 4219 
Q 1781 4219 1451 3797 
Q 1122 3375 1075 2522 
Q 1259 2794 1537 2939 
Q 1816 3084 2150 3084 
Q 2853 3084 3261 2657 
Q 3669 2231 3669 1497 
Q 3669 778 3244 343 
Q 2819 -91 2113 -91 
Q 1303 -91 875 529 
Q 447 1150 447 2328 
Q 447 3434 972 4092 
Q 1497 4750 2381 4750 
Q 2619 4750 2861 4703 
Q 3103 4656 3366 4563 
z
" transform="scale(0.015625)"/>
       </defs>
       <use xlink:href="#DejaVuSans-36"/>
       <use xlink:href="#DejaVuSans-30" x="63.623047"/>
       <use xlink:href="#DejaVuSans-30" x="127.246094"/>
      </g>
     </g>
    </g>
    <g id="xtick_5">
     <g id="line2d_5">
      <g>
       <use xlink:href="#m0b07ee2052" x="260.336402" y="307.584" style="stroke: #000000; stroke-width: 0.8"/>
      </g>
     </g>
     <g id="text_5">
      <!-- 700 -->
      <g transform="translate(250.792652 322.182437)scale(0.1 -0.1)">
       <defs>
        <path id="DejaVuSans-37" d="M 525 4666 
L 3525 4666 
L 3525 4397 
L 1831 0 
L 1172 0 
L 2766 4134 
L 525 4134 
L 525 4666 
z
" transform="scale(0.015625)"/>
       </defs>
       <use xlink:href="#DejaVuSans-37"/>
       <use xlink:href="#DejaVuSans-30" x="63.623047"/>
       <use xlink:href="#DejaVuSans-30" x="127.246094"/>
      </g>
     </g>
    </g>
    <g id="xtick_6">
     <g id="line2d_6">
      <g>
       <use xlink:href="#m0b07ee2052" x="306.386692" y="307.584" style="stroke: #000000; stroke-width: 0.8"/>
      </g>
     </g>
     <g id="text_6">
      <!-- 800 -->
      <g transform="translate(296.842942 322.182437)scale(0.1 -0.1)">
       <defs>
        <path id="DejaVuSans-38" d="M 2034 2216 
Q 1584 2216 1326 1975 
Q 1069 1734 1069 1313 
Q 1069 891 1326 650 
Q 1584 409 2034 409 
Q 2484 409 2743 651 
Q 3003 894 3003 1313 
Q 3003 1734 2745 1975 
Q 2488 2216 2034 2216 
z
M 1403 2484 
Q 997 2584 770 2862 
Q 544 3141 544 3541 
Q 544 4100 942 4425 
Q 1341 4750 2034 4750 
Q 2731 4750 3128 4425 
Q 3525 4100 3525 3541 
Q 3525 3141 3298 2862 
Q 3072 2584 2669 2484 
Q 3125 2378 3379 2068 
Q 3634 1759 3634 1313 
Q 3634 634 3220 271 
Q 2806 -91 2034 -91 
Q 1263 -91 848 271 
Q 434 634 434 1313 
Q 434 1759 690 2068 
Q 947 2378 1403 2484 
z
M 1172 3481 
Q 1172 3119 1398 2916 
Q 1625 2713 2034 2713 
Q 2441 2713 2670 2916 
Q 2900 3119 2900 3481 
Q 2900 3844 2670 4047 
Q 2441 4250 2034 4250 
Q 1625 4250 1398 4047 
Q 1172 3844 1172 3481 
z
" transform="scale(0.015625)"/>
       </defs>
       <use xlink:href="#DejaVuSans-38"/>
       <use xlink:href="#DejaVuSans-30" x="63.623047"/>
       <use xlink:href="#DejaVuSans-30" x="127.246094"/>
      </g>
     </g>
    </g>
    <g id="xtick_7">
     <g id="line2d_7">
      <g>
       <use xlink:href="#m0b07ee2052" x="352.436983" y="307.584" style="stroke: #000000; stroke-width: 0.8"/>
      </g>
     </g>
     <g id="text_7">
      <!-- 900 -->
      <g transform="translate(342.893233 322.182437)scale(0.1 -0.1)">
       <defs>
        <path id="DejaVuSans-39" d="M 703 97 
L 703 672 
Q 941 559 1184 500 
Q 1428 441 1663 441 
Q 2288 441 2617 861 
Q 2947 1281 2994 2138 
Q 2813 1869 2534 1725 
Q 2256 1581 1919 1581 
Q 1219 1581 811 2004 
Q 403 2428 403 3163 
Q 403 3881 828 4315 
Q 1253 4750 1959 4750 
Q 2769 4750 3195 4129 
Q 3622 3509 3622 2328 
Q 3622 1225 3098 567 
Q 2575 -91 1691 -91 
Q 1453 -91 1209 -44 
Q 966 3 703 97 
z
M 1959 2075 
Q 2384 2075 2632 2365 
Q 2881 2656 2881 3163 
Q 2881 3666 2632 3958 
Q 2384 4250 1959 4250 
Q 1534 4250 1286 3958 
Q 1038 3666 1038 3163 
Q 1038 2656 1286 2365 
Q 1534 2075 1959 2075 
z
" transform="scale(0.015625)"/>
       </defs>
       <use xlink:href="#DejaVuSans-39"/>
       <use xlink:href="#DejaVuSans-30" x="63.623047"/>
       <use xlink:href="#DejaVuSans-30" x="127.246094"/>
      </g>
     </g>
    </g>
    <g id="xtick_8">
     <g id="line2d_8">
      <g>
       <use xlink:href="#m0b07ee2052" x="398.487273" y="307.584" style="stroke: #000000; stroke-width: 0.8"/>
      </g>
     </g>
     <g id="text_8">
      <!-- 1000 -->
      <g transform="translate(385.762273 322.182437)scale(0.1 -0.1)">
       <defs>
        <path id="DejaVuSans-31" d="M 794 531 
L 1825 531 
L 1825 4091 
L 703 3866 
L 703 4441 
L 1819 4666 
L 2450 4666 
L 2450 531 
L 3481 531 
L 3481 0 
L 794 0 
L 794 531 
z
" transform="scale(0.015625)"/>
       </defs>
       <use xlink:href="#DejaVuSans-31"/>
       <use xlink:href="#DejaVuSans-30" x="63.623047"/>
       <use xlink:href="#DejaVuSans-30" x="127.246094"/>
       <use xlink:href="#DejaVuSans-30" x="190.869141"/>
      </g>
     </g>
    </g>
    <g id="text_9">
     <!-- T(K) -->
     <g transform="translate(225.925625 335.860562)scale(0.1 -0.1)">
      <defs>
       <path id="DejaVuSans-54" d="M -19 4666 
L 3928 4666 
L 3928 4134 
L 2272 4134 
L 2272 0 
L 1638 0 
L 1638 4134 
L -19 4134 
L -19 4666 
z
" transform="scale(0.015625)"/>
       <path id="DejaVuSans-28" d="M 1984 4856 
Q 1566 4138 1362 3434 
Q 1159 2731 1159 2009 
Q 1159 1288 1364 580 
Q 1569 -128 1984 -844 
L 1484 -844 
Q 1016 -109 783 600 
Q 550 1309 550 2009 
Q 550 2706 781 3412 
Q 1013 4119 1484 4856 
L 1984 4856 
z
" transform="scale(0.015625)"/>
       <path id="DejaVuSans-4b" d="M 628 4666 
L 1259 4666 
L 1259 2694 
L 3353 4666 
L 4166 4666 
L 1850 2491 
L 4331 0 
L 3500 0 
L 1259 2247 
L 1259 0 
L 628 0 
L 628 4666 
z
" transform="scale(0.015625)"/>
       <path id="DejaVuSans-29" d="M 513 4856 
L 1013 4856 
Q 1481 4119 1714 3412 
Q 1947 2706 1947 2009 
Q 1947 1309 1714 600 
Q 1481 -109 1013 -844 
L 513 -844 
Q 928 -128 1133 580 
Q 1338 1288 1338 2009 
Q 1338 2731 1133 3434 
Q 928 4138 513 4856 
z
" transform="scale(0.015625)"/>
      </defs>
      <use xlink:href="#DejaVuSans-54"/>
      <use xlink:href="#DejaVuSans-28" x="61.083984"/>
      <use xlink:href="#DejaVuSans-4b" x="100.097656"/>
      <use xlink:href="#DejaVuSans-29" x="165.673828"/>
     </g>
    </g>
   </g>
   <g id="matplotlib.axis_2">
    <g id="ytick_1">
     <g id="line2d_9">
      <defs>
       <path id="m8429dd2c2e" d="M 0 0 
L -3.5 0 
" style="stroke: #000000; stroke-width: 0.8"/>
      </defs>
      <g>
       <use xlink:href="#m8429dd2c2e" x="57.6" y="307.584" style="stroke: #000000; stroke-width: 0.8"/>
      </g>
     </g>
     <g id="text_10">
      <!-- 0.0 -->
      <g transform="translate(34.696875 311.383219)scale(0.1 -0.1)">
       <defs>
        <path id="DejaVuSans-2e" d="M 684 794 
L 1344 794 
L 1344 0 
L 684 0 
L 684 794 
z
" transform="scale(0.015625)"/>
       </defs>
       <use xlink:href="#DejaVuSans-30"/>
       <use xlink:href="#DejaVuSans-2e" x="63.623047"/>
       <use xlink:href="#DejaVuSans-30" x="95.410156"/>
      </g>
     </g>
    </g>
    <g id="ytick_2">
     <g id="line2d_10">
      <g>
       <use xlink:href="#m8429dd2c2e" x="57.6" y="257.637882" style="stroke: #000000; stroke-width: 0.8"/>
      </g>
     </g>
     <g id="text_11">
      <!-- 0.2 -->
      <g transform="translate(34.696875 261.4371)scale(0.1 -0.1)">
       <defs>
        <path id="DejaVuSans-32" d="M 1228 531 
L 3431 531 
L 3431 0 
L 469 0 
L 469 531 
Q 828 903 1448 1529 
Q 2069 2156 2228 2338 
Q 2531 2678 2651 2914 
Q 2772 3150 2772 3378 
Q 2772 3750 2511 3984 
Q 2250 4219 1831 4219 
Q 1534 4219 1204 4116 
Q 875 4013 500 3803 
L 500 4441 
Q 881 4594 1212 4672 
Q 1544 4750 1819 4750 
Q 2544 4750 2975 4387 
Q 3406 4025 3406 3419 
Q 3406 3131 3298 2873 
Q 3191 2616 2906 2266 
Q 2828 2175 2409 1742 
Q 1991 1309 1228 531 
z
" transform="scale(0.015625)"/>
       </defs>
       <use xlink:href="#DejaVuSans-30"/>
       <use xlink:href="#DejaVuSans-2e" x="63.623047"/>
       <use xlink:href="#DejaVuSans-32" x="95.410156"/>
      </g>
     </g>
    </g>
    <g id="ytick_3">
     <g id="line2d_11">
      <g>
       <use xlink:href="#m8429dd2c2e" x="57.6" y="207.691763" style="stroke: #000000; stroke-width: 0.8"/>
      </g>
     </g>
     <g id="text_12">
      <!-- 0.4 -->
      <g transform="translate(34.696875 211.490982)scale(0.1 -0.1)">
       <use xlink:href="#DejaVuSans-30"/>
       <use xlink:href="#DejaVuSans-2e" x="63.623047"/>
       <use xlink:href="#DejaVuSans-34" x="95.410156"/>
      </g>
     </g>
    </g>
    <g id="ytick_4">
     <g id="line2d_12">
      <g>
       <use xlink:href="#m8429dd2c2e" x="57.6" y="157.745645" style="stroke: #000000; stroke-width: 0.8"/>
      </g>
     </g>
     <g id="text_13">
      <!-- 0.6 -->
      <g transform="translate(34.696875 161.544863)scale(0.1 -0.1)">
       <use xlink:href="#DejaVuSans-30"/>
       <use xlink:href="#DejaVuSans-2e" x="63.623047"/>
       <use xlink:href="#DejaVuSans-36" x="95.410156"/>
      </g>
     </g>
    </g>
    <g id="ytick_5">
     <g id="line2d_13">
      <g>
       <use xlink:href="#m8429dd2c2e" x="57.6" y="107.799526" style="stroke: #000000; stroke-width: 0.8"/>
      </g>
     </g>
     <g id="text_14">
      <!-- 0.8 -->
      <g transform="translate(34.696875 111.598745)scale(0.1 -0.1)">
       <use xlink:href="#DejaVuSans-30"/>
       <use xlink:href="#DejaVuSans-2e" x="63.623047"/>
       <use xlink:href="#DejaVuSans-38" x="95.410156"/>
      </g>
     </g>
    </g>
    <g id="ytick_6">
     <g id="line2d_14">
      <g>
       <use xlink:href="#m8429dd2c2e" x="57.6" y="57.853408" style="stroke: #000000; stroke-width: 0.8"/>
      </g>
     </g>
     <g id="text_15">
      <!-- 1.0 -->
      <g transform="translate(34.696875 61.652627)scale(0.1 -0.1)">
       <use xlink:href="#DejaVuSans-31"/>
       <use xlink:href="#DejaVuSans-2e" x="63.623047"/>
       <use xlink:href="#DejaVuSans-30" x="95.410156"/>
      </g>
     </g>
    </g>
    <g id="text_16">
     <!-- Desorption flux (D/m$ ^{2}$/s) -->
     <g transform="translate(28.596875 235.428)rotate(-90)scale(0.1 -0.1)">
      <defs>
       <path id="DejaVuSans-44" d="M 1259 4147 
L 1259 519 
L 2022 519 
Q 2988 519 3436 956 
Q 3884 1394 3884 2338 
Q 3884 3275 3436 3711 
Q 2988 4147 2022 4147 
L 1259 4147 
z
M 628 4666 
L 1925 4666 
Q 3281 4666 3915 4102 
Q 4550 3538 4550 2338 
Q 4550 1131 3912 565 
Q 3275 0 1925 0 
L 628 0 
L 628 4666 
z
" transform="scale(0.015625)"/>
       <path id="DejaVuSans-65" d="M 3597 1894 
L 3597 1613 
L 953 1613 
Q 991 1019 1311 708 
Q 1631 397 2203 397 
Q 2534 397 2845 478 
Q 3156 559 3463 722 
L 3463 178 
Q 3153 47 2828 -22 
Q 2503 -91 2169 -91 
Q 1331 -91 842 396 
Q 353 884 353 1716 
Q 353 2575 817 3079 
Q 1281 3584 2069 3584 
Q 2775 3584 3186 3129 
Q 3597 2675 3597 1894 
z
M 3022 2063 
Q 3016 2534 2758 2815 
Q 2500 3097 2075 3097 
Q 1594 3097 1305 2825 
Q 1016 2553 972 2059 
L 3022 2063 
z
" transform="scale(0.015625)"/>
       <path id="DejaVuSans-73" d="M 2834 3397 
L 2834 2853 
Q 2591 2978 2328 3040 
Q 2066 3103 1784 3103 
Q 1356 3103 1142 2972 
Q 928 2841 928 2578 
Q 928 2378 1081 2264 
Q 1234 2150 1697 2047 
L 1894 2003 
Q 2506 1872 2764 1633 
Q 3022 1394 3022 966 
Q 3022 478 2636 193 
Q 2250 -91 1575 -91 
Q 1294 -91 989 -36 
Q 684 19 347 128 
L 347 722 
Q 666 556 975 473 
Q 1284 391 1588 391 
Q 1994 391 2212 530 
Q 2431 669 2431 922 
Q 2431 1156 2273 1281 
Q 2116 1406 1581 1522 
L 1381 1569 
Q 847 1681 609 1914 
Q 372 2147 372 2553 
Q 372 3047 722 3315 
Q 1072 3584 1716 3584 
Q 2034 3584 2315 3537 
Q 2597 3491 2834 3397 
z
" transform="scale(0.015625)"/>
       <path id="DejaVuSans-6f" d="M 1959 3097 
Q 1497 3097 1228 2736 
Q 959 2375 959 1747 
Q 959 1119 1226 758 
Q 1494 397 1959 397 
Q 2419 397 2687 759 
Q 2956 1122 2956 1747 
Q 2956 2369 2687 2733 
Q 2419 3097 1959 3097 
z
M 1959 3584 
Q 2709 3584 3137 3096 
Q 3566 2609 3566 1747 
Q 3566 888 3137 398 
Q 2709 -91 1959 -91 
Q 1206 -91 779 398 
Q 353 888 353 1747 
Q 353 2609 779 3096 
Q 1206 3584 1959 3584 
z
" transform="scale(0.015625)"/>
       <path id="DejaVuSans-72" d="M 2631 2963 
Q 2534 3019 2420 3045 
Q 2306 3072 2169 3072 
Q 1681 3072 1420 2755 
Q 1159 2438 1159 1844 
L 1159 0 
L 581 0 
L 581 3500 
L 1159 3500 
L 1159 2956 
Q 1341 3275 1631 3429 
Q 1922 3584 2338 3584 
Q 2397 3584 2469 3576 
Q 2541 3569 2628 3553 
L 2631 2963 
z
" transform="scale(0.015625)"/>
       <path id="DejaVuSans-70" d="M 1159 525 
L 1159 -1331 
L 581 -1331 
L 581 3500 
L 1159 3500 
L 1159 2969 
Q 1341 3281 1617 3432 
Q 1894 3584 2278 3584 
Q 2916 3584 3314 3078 
Q 3713 2572 3713 1747 
Q 3713 922 3314 415 
Q 2916 -91 2278 -91 
Q 1894 -91 1617 61 
Q 1341 213 1159 525 
z
M 3116 1747 
Q 3116 2381 2855 2742 
Q 2594 3103 2138 3103 
Q 1681 3103 1420 2742 
Q 1159 2381 1159 1747 
Q 1159 1113 1420 752 
Q 1681 391 2138 391 
Q 2594 391 2855 752 
Q 3116 1113 3116 1747 
z
" transform="scale(0.015625)"/>
       <path id="DejaVuSans-74" d="M 1172 4494 
L 1172 3500 
L 2356 3500 
L 2356 3053 
L 1172 3053 
L 1172 1153 
Q 1172 725 1289 603 
Q 1406 481 1766 481 
L 2356 481 
L 2356 0 
L 1766 0 
Q 1100 0 847 248 
Q 594 497 594 1153 
L 594 3053 
L 172 3053 
L 172 3500 
L 594 3500 
L 594 4494 
L 1172 4494 
z
" transform="scale(0.015625)"/>
       <path id="DejaVuSans-69" d="M 603 3500 
L 1178 3500 
L 1178 0 
L 603 0 
L 603 3500 
z
M 603 4863 
L 1178 4863 
L 1178 4134 
L 603 4134 
L 603 4863 
z
" transform="scale(0.015625)"/>
       <path id="DejaVuSans-6e" d="M 3513 2113 
L 3513 0 
L 2938 0 
L 2938 2094 
Q 2938 2591 2744 2837 
Q 2550 3084 2163 3084 
Q 1697 3084 1428 2787 
Q 1159 2491 1159 1978 
L 1159 0 
L 581 0 
L 581 3500 
L 1159 3500 
L 1159 2956 
Q 1366 3272 1645 3428 
Q 1925 3584 2291 3584 
Q 2894 3584 3203 3211 
Q 3513 2838 3513 2113 
z
" transform="scale(0.015625)"/>
       <path id="DejaVuSans-20" transform="scale(0.015625)"/>
       <path id="DejaVuSans-66" d="M 2375 4863 
L 2375 4384 
L 1825 4384 
Q 1516 4384 1395 4259 
Q 1275 4134 1275 3809 
L 1275 3500 
L 2222 3500 
L 2222 3053 
L 1275 3053 
L 1275 0 
L 697 0 
L 697 3053 
L 147 3053 
L 147 3500 
L 697 3500 
L 697 3744 
Q 697 4328 969 4595 
Q 1241 4863 1831 4863 
L 2375 4863 
z
" transform="scale(0.015625)"/>
       <path id="DejaVuSans-6c" d="M 603 4863 
L 1178 4863 
L 1178 0 
L 603 0 
L 603 4863 
z
" transform="scale(0.015625)"/>
       <path id="DejaVuSans-75" d="M 544 1381 
L 544 3500 
L 1119 3500 
L 1119 1403 
Q 1119 906 1312 657 
Q 1506 409 1894 409 
Q 2359 409 2629 706 
Q 2900 1003 2900 1516 
L 2900 3500 
L 3475 3500 
L 3475 0 
L 2900 0 
L 2900 538 
Q 2691 219 2414 64 
Q 2138 -91 1772 -91 
Q 1169 -91 856 284 
Q 544 659 544 1381 
z
M 1991 3584 
L 1991 3584 
z
" transform="scale(0.015625)"/>
       <path id="DejaVuSans-78" d="M 3513 3500 
L 2247 1797 
L 3578 0 
L 2900 0 
L 1881 1375 
L 863 0 
L 184 0 
L 1544 1831 
L 300 3500 
L 978 3500 
L 1906 2253 
L 2834 3500 
L 3513 3500 
z
" transform="scale(0.015625)"/>
       <path id="DejaVuSans-2f" d="M 1625 4666 
L 2156 4666 
L 531 -594 
L 0 -594 
L 1625 4666 
z
" transform="scale(0.015625)"/>
       <path id="DejaVuSans-6d" d="M 3328 2828 
Q 3544 3216 3844 3400 
Q 4144 3584 4550 3584 
Q 5097 3584 5394 3201 
Q 5691 2819 5691 2113 
L 5691 0 
L 5113 0 
L 5113 2094 
Q 5113 2597 4934 2840 
Q 4756 3084 4391 3084 
Q 3944 3084 3684 2787 
Q 3425 2491 3425 1978 
L 3425 0 
L 2847 0 
L 2847 2094 
Q 2847 2600 2669 2842 
Q 2491 3084 2119 3084 
Q 1678 3084 1418 2786 
Q 1159 2488 1159 1978 
L 1159 0 
L 581 0 
L 581 3500 
L 1159 3500 
L 1159 2956 
Q 1356 3278 1631 3431 
Q 1906 3584 2284 3584 
Q 2666 3584 2933 3390 
Q 3200 3197 3328 2828 
z
" transform="scale(0.015625)"/>
      </defs>
      <use xlink:href="#DejaVuSans-44" transform="translate(0 0.765625)"/>
      <use xlink:href="#DejaVuSans-65" transform="translate(77.001953 0.765625)"/>
      <use xlink:href="#DejaVuSans-73" transform="translate(138.525391 0.765625)"/>
      <use xlink:href="#DejaVuSans-6f" transform="translate(190.625 0.765625)"/>
      <use xlink:href="#DejaVuSans-72" transform="translate(251.806641 0.765625)"/>
      <use xlink:href="#DejaVuSans-70" transform="translate(292.919922 0.765625)"/>
      <use xlink:href="#DejaVuSans-74" transform="translate(356.396484 0.765625)"/>
      <use xlink:href="#DejaVuSans-69" transform="translate(395.605469 0.765625)"/>
      <use xlink:href="#DejaVuSans-6f" transform="translate(423.388672 0.765625)"/>
      <use xlink:href="#DejaVuSans-6e" transform="translate(484.570312 0.765625)"/>
      <use xlink:href="#DejaVuSans-20" transform="translate(547.949219 0.765625)"/>
      <use xlink:href="#DejaVuSans-66" transform="translate(579.736328 0.765625)"/>
      <use xlink:href="#DejaVuSans-6c" transform="translate(614.941406 0.765625)"/>
      <use xlink:href="#DejaVuSans-75" transform="translate(642.724609 0.765625)"/>
      <use xlink:href="#DejaVuSans-78" transform="translate(706.103516 0.765625)"/>
      <use xlink:href="#DejaVuSans-20" transform="translate(765.283203 0.765625)"/>
      <use xlink:href="#DejaVuSans-28" transform="translate(797.070312 0.765625)"/>
      <use xlink:href="#DejaVuSans-44" transform="translate(836.083984 0.765625)"/>
      <use xlink:href="#DejaVuSans-2f" transform="translate(913.085938 0.765625)"/>
      <use xlink:href="#DejaVuSans-6d" transform="translate(946.777344 0.765625)"/>
      <use xlink:href="#DejaVuSans-32" transform="translate(1045.146484 39.046875)scale(0.7)"/>
      <use xlink:href="#DejaVuSans-2f" transform="translate(1092.416992 0.765625)"/>
      <use xlink:href="#DejaVuSans-73" transform="translate(1126.108398 0.765625)"/>
      <use xlink:href="#DejaVuSans-29" transform="translate(1178.208008 0.765625)"/>
     </g>
    </g>
    <g id="text_17">
     <!-- 1e16 -->
     <g transform="translate(57.6 38.472)scale(0.1 -0.1)">
      <use xlink:href="#DejaVuSans-31"/>
      <use xlink:href="#DejaVuSans-65" x="63.623047"/>
      <use xlink:href="#DejaVuSans-31" x="125.146484"/>
      <use xlink:href="#DejaVuSans-36" x="188.769531"/>
     </g>
    </g>
   </g>
   <g id="line2d_15">
    <path d="M 73.832727 307.155612 
L 73.832727 307.224484 
L 77.986777 306.590456 
L 80.289292 305.940561 
L 82.591806 305.04347 
L 84.894321 303.933246 
L 88.348092 301.966468 
L 91.801864 299.652848 
L 94.104379 297.884358 
L 96.406893 295.907701 
L 98.709408 293.701883 
L 101.011922 291.248083 
L 103.314437 288.529375 
L 105.616951 285.530741 
L 107.919466 282.239449 
L 110.22198 278.645742 
L 112.524495 274.743715 
L 114.827009 270.532182 
L 118.280781 263.645151 
L 121.734553 256.109264 
L 125.188324 247.98517 
L 128.642096 239.349019 
L 133.247125 227.178008 
L 139.003411 211.155338 
L 144.759698 194.470447 
L 151.667241 173.782867 
L 160.877299 145.418098 
L 167.784843 124.354056 
L 171.238615 114.527916 
L 173.541129 108.539299 
L 175.843644 103.2076 
L 178.146158 98.730563 
L 179.297415 96.875893 
L 180.448673 95.310212 
L 181.59993 94.057119 
L 182.751187 93.138728 
L 183.902444 92.575274 
L 185.053702 92.384765 
L 186.204959 92.582678 
L 187.356216 93.181703 
L 188.507473 94.191543 
L 189.658731 95.618756 
L 190.809988 97.46665 
L 191.961245 99.735223 
L 193.112502 102.421142 
L 194.26376 105.517764 
L 195.415017 109.01519 
L 197.717531 117.157156 
L 200.020046 126.706937 
L 202.32256 137.481255 
L 204.625075 149.260699 
L 208.078847 168.269204 
L 217.288905 220.474069 
L 220.742676 238.255281 
L 223.045191 249.047413 
L 225.347705 258.852429 
L 227.65022 267.601755 
L 229.952734 275.269231 
L 232.255249 281.86737 
L 234.557763 287.441784 
L 236.860278 292.064383 
L 239.162792 295.825952 
L 241.465307 298.828724 
L 243.767822 301.179504 
L 246.070336 302.983752 
L 248.372851 304.340902 
L 250.675365 305.341028 
L 252.97788 306.062833 
L 255.280394 306.57283 
L 258.734166 307.056707 
L 263.339195 307.378518 
L 270.246738 307.541659 
L 286.36434 307.583537 
L 398.487273 307.583999 
L 398.487273 307.583999 
" clip-path="url(#pe0c4452d7e)" style="fill: none; stroke: #1f77b4; stroke-width: 1.5; stroke-linecap: square"/>
   </g>
   <g id="line2d_16">
    <path d="M 73.832727 307.156019 
L 73.832727 307.224484 
L 77.986777 306.590456 
L 80.289292 305.940561 
L 82.591806 305.04347 
L 84.894321 303.933246 
L 88.348092 301.966468 
L 91.801864 299.652848 
L 94.104379 297.884358 
L 96.406893 295.907701 
L 98.709408 293.701883 
L 101.011922 291.248083 
L 103.314437 288.529375 
L 105.616951 285.530741 
L 107.919466 282.239449 
L 110.22198 278.645742 
L 112.524495 274.743715 
L 114.827009 270.532182 
L 118.280781 263.645151 
L 121.734553 256.109264 
L 125.188324 247.98517 
L 128.642096 239.349019 
L 133.247125 227.178007 
L 139.003411 211.155338 
L 144.759698 194.470446 
L 151.667241 173.782867 
L 160.877299 145.418097 
L 167.784843 124.354056 
L 171.238615 114.527915 
L 173.541129 108.539299 
L 175.843644 103.2076 
L 178.146158 98.730563 
L 179.297415 96.875893 
L 180.448673 95.310211 
L 181.59993 94.057119 
L 182.751187 93.138727 
L 183.902444 92.575273 
L 185.053702 92.384764 
L 186.204959 92.582677 
L 187.356216 93.181703 
L 188.507473 94.191543 
L 189.658731 95.618755 
L 190.809988 97.466649 
L 191.961245 99.735222 
L 193.112502 102.421141 
L 194.26376 105.517763 
L 195.415017 109.015189 
L 197.717531 117.157155 
L 200.020046 126.706936 
L 202.32256 137.481254 
L 204.625075 149.260698 
L 208.078847 168.269203 
L 217.288905 220.474069 
L 220.742676 238.255281 
L 223.045191 249.047413 
L 225.347705 258.852429 
L 227.65022 267.601754 
L 229.952734 275.269231 
L 232.255249 281.86737 
L 234.557763 287.441784 
L 236.860278 292.064383 
L 239.162792 295.825952 
L 241.465307 298.828724 
L 243.767822 301.179504 
L 246.070336 302.983752 
L 248.372851 304.340902 
L 250.675365 305.341028 
L 252.97788 306.062833 
L 255.280394 306.57283 
L 258.734166 307.056707 
L 263.339195 307.378518 
L 270.246738 307.541659 
L 286.36434 307.583537 
L 398.487273 307.584 
L 398.487273 307.584 
" clip-path="url(#pe0c4452d7e)" style="fill: none; stroke: #ff7f0e; stroke-width: 1.7; stroke-linecap: square"/>
   </g>
   <g id="line2d_17">
    <path d="M 73.832727 307.578512 
L 73.832727 307.583439 
L 76.83552 194.725931 
L 77.986777 242.342337 
L 79.138034 242.123582 
L 80.289292 236.361936 
L 82.591806 222.750402 
L 86.045578 200.267439 
L 90.650607 168.234542 
L 95.255636 136.279127 
L 98.709408 114.077652 
L 101.011922 100.802792 
L 103.314437 89.15726 
L 104.465694 84.04636 
L 105.616951 79.458805 
L 106.768208 75.427231 
L 107.919466 71.98058 
L 109.070723 69.143683 
L 110.22198 66.93686 
L 111.373237 65.375569 
L 112.524495 64.470108 
L 113.675752 64.225375 
L 114.827009 64.640702 
L 115.978266 65.709767 
L 117.129524 67.420601 
L 118.280781 69.755681 
L 119.432038 72.692122 
L 120.583295 76.201968 
L 121.734553 80.252569 
L 122.88581 84.807056 
L 125.188324 95.262427 
L 127.490839 107.210863 
L 129.793353 120.267742 
L 134.398382 148.163083 
L 139.003411 176.118442 
L 142.457183 195.810239 
L 144.759698 207.987013 
L 147.062212 219.276532 
L 149.364727 229.624347 
L 151.667241 239.015467 
L 153.969756 247.466018 
L 156.27227 255.015177 
L 158.574785 261.717953 
L 160.877299 267.639114 
L 163.179814 272.848339 
L 165.482328 277.416514 
L 167.784843 281.413002 
L 170.087357 284.903722 
L 172.389872 287.949846 
L 174.692386 290.607015 
L 176.994901 292.924978 
L 179.297415 294.947564 
L 181.59993 296.712939 
L 183.902444 298.254049 
L 186.204959 299.599187 
L 189.658731 301.301546 
L 193.112502 302.684689 
L 196.566274 303.803207 
L 200.020046 304.701602 
L 204.625075 305.619918 
L 209.230104 306.283651 
L 214.98639 306.843103 
L 221.893934 307.235896 
L 229.952734 307.457345 
L 243.767822 307.568863 
L 295.574398 307.584 
L 398.487273 307.584 
L 398.487273 307.584 
" clip-path="url(#pe0c4452d7e)" style="fill: none; stroke-dasharray: 2.96,1.28; stroke-dashoffset: 0; stroke: #2ca02c; stroke-width: 0.8"/>
   </g>
   <g id="patch_3">
    <path d="M 57.6 307.584 
L 57.6 41.472 
" style="fill: none; stroke: #000000; stroke-width: 0.8; stroke-linejoin: miter; stroke-linecap: square"/>
   </g>
   <g id="patch_4">
    <path d="M 414.72 307.584 
L 414.72 41.472 
" style="fill: none; stroke: #000000; stroke-width: 0.8; stroke-linejoin: miter; stroke-linecap: square"/>
   </g>
   <g id="patch_5">
    <path d="M 57.6 307.584 
L 414.72 307.584 
" style="fill: none; stroke: #000000; stroke-width: 0.8; stroke-linejoin: miter; stroke-linecap: square"/>
   </g>
   <g id="patch_6">
    <path d="M 57.6 41.472 
L 414.72 41.472 
" style="fill: none; stroke: #000000; stroke-width: 0.8; stroke-linejoin: miter; stroke-linecap: square"/>
   </g>
   <g id="text_18">
    <!-- TDS -->
    <g transform="translate(224.06625 35.472)scale(0.12 -0.12)">
     <defs>
      <path id="DejaVuSans-53" d="M 3425 4513 
L 3425 3897 
Q 3066 4069 2747 4153 
Q 2428 4238 2131 4238 
Q 1616 4238 1336 4038 
Q 1056 3838 1056 3469 
Q 1056 3159 1242 3001 
Q 1428 2844 1947 2747 
L 2328 2669 
Q 3034 2534 3370 2195 
Q 3706 1856 3706 1288 
Q 3706 609 3251 259 
Q 2797 -91 1919 -91 
Q 1588 -91 1214 -16 
Q 841 59 441 206 
L 441 856 
Q 825 641 1194 531 
Q 1563 422 1919 422 
Q 2459 422 2753 634 
Q 3047 847 3047 1241 
Q 3047 1584 2836 1778 
Q 2625 1972 2144 2069 
L 1759 2144 
Q 1053 2284 737 2584 
Q 422 2884 422 3419 
Q 422 4038 858 4394 
Q 1294 4750 2059 4750 
Q 2388 4750 2728 4690 
Q 3069 4631 3425 4513 
z
" transform="scale(0.015625)"/>
     </defs>
     <use xlink:href="#DejaVuSans-54"/>
     <use xlink:href="#DejaVuSans-44" x="61.083984"/>
     <use xlink:href="#DejaVuSans-53" x="138.085938"/>
    </g>
   </g>
   <g id="legend_1">
    <g id="patch_7">
     <path d="M 344.959063 93.506375 
L 407.72 93.506375 
Q 409.72 93.506375 409.72 91.506375 
L 409.72 48.472 
Q 409.72 46.472 407.72 46.472 
L 344.959063 46.472 
Q 342.959063 46.472 342.959063 48.472 
L 342.959063 91.506375 
Q 342.959063 93.506375 344.959063 93.506375 
z
" style="fill: #ffffff; opacity: 0.8; stroke: #cccccc; stroke-linejoin: miter"/>
    </g>
    <g id="PathCollection_2">
     <g>
      <use xlink:href="#m36c6d8bfb5" x="356.959063" y="55.445438" style="fill: #1f77b4; stroke: #1f77b4"/>
     </g>
    </g>
    <g id="text_19">
     <!-- 0 dpa -->
     <g transform="translate(374.959063 58.070438)scale(0.1 -0.1)">
      <defs>
       <path id="DejaVuSans-64" d="M 2906 2969 
L 2906 4863 
L 3481 4863 
L 3481 0 
L 2906 0 
L 2906 525 
Q 2725 213 2448 61 
Q 2172 -91 1784 -91 
Q 1150 -91 751 415 
Q 353 922 353 1747 
Q 353 2572 751 3078 
Q 1150 3584 1784 3584 
Q 2172 3584 2448 3432 
Q 2725 3281 2906 2969 
z
M 947 1747 
Q 947 1113 1208 752 
Q 1469 391 1925 391 
Q 2381 391 2643 752 
Q 2906 1113 2906 1747 
Q 2906 2381 2643 2742 
Q 2381 3103 1925 3103 
Q 1469 3103 1208 2742 
Q 947 2381 947 1747 
z
" transform="scale(0.015625)"/>
       <path id="DejaVuSans-61" d="M 2194 1759 
Q 1497 1759 1228 1600 
Q 959 1441 959 1056 
Q 959 750 1161 570 
Q 1363 391 1709 391 
Q 2188 391 2477 730 
Q 2766 1069 2766 1631 
L 2766 1759 
L 2194 1759 
z
M 3341 1997 
L 3341 0 
L 2766 0 
L 2766 531 
Q 2569 213 2275 61 
Q 1981 -91 1556 -91 
Q 1019 -91 701 211 
Q 384 513 384 1019 
Q 384 1609 779 1909 
Q 1175 2209 1959 2209 
L 2766 2209 
L 2766 2266 
Q 2766 2663 2505 2880 
Q 2244 3097 1772 3097 
Q 1472 3097 1187 3025 
Q 903 2953 641 2809 
L 641 3341 
Q 956 3463 1253 3523 
Q 1550 3584 1831 3584 
Q 2591 3584 2966 3190 
Q 3341 2797 3341 1997 
z
" transform="scale(0.015625)"/>
      </defs>
      <use xlink:href="#DejaVuSans-30"/>
      <use xlink:href="#DejaVuSans-20" x="63.623047"/>
      <use xlink:href="#DejaVuSans-64" x="95.410156"/>
      <use xlink:href="#DejaVuSans-70" x="158.886719"/>
      <use xlink:href="#DejaVuSans-61" x="222.363281"/>
     </g>
    </g>
    <g id="line2d_18">
     <path d="M 346.959063 69.248563 
L 356.959063 69.248563 
L 366.959063 69.248563 
" style="fill: none; stroke: #ff7f0e; stroke-width: 1.7; stroke-linecap: square"/>
    </g>
    <g id="text_20">
     <!-- Total -->
     <g transform="translate(374.959063 72.748563)scale(0.1 -0.1)">
      <use xlink:href="#DejaVuSans-54"/>
      <use xlink:href="#DejaVuSans-6f" x="44.083984"/>
      <use xlink:href="#DejaVuSans-74" x="105.265625"/>
      <use xlink:href="#DejaVuSans-61" x="144.474609"/>
      <use xlink:href="#DejaVuSans-6c" x="205.753906"/>
     </g>
    </g>
    <g id="line2d_19">
     <path d="M 346.959063 83.926688 
L 356.959063 83.926688 
L 366.959063 83.926688 
" style="fill: none; stroke-dasharray: 2.96,1.28; stroke-dashoffset: 0; stroke: #2ca02c; stroke-width: 0.8"/>
    </g>
    <g id="text_21">
     <!-- Trap 1 -->
     <g transform="translate(374.959063 87.426688)scale(0.1 -0.1)">
      <use xlink:href="#DejaVuSans-54"/>
      <use xlink:href="#DejaVuSans-72" x="46.333984"/>
      <use xlink:href="#DejaVuSans-61" x="87.447266"/>
      <use xlink:href="#DejaVuSans-70" x="148.726562"/>
      <use xlink:href="#DejaVuSans-20" x="212.203125"/>
      <use xlink:href="#DejaVuSans-31" x="243.990234"/>
     </g>
    </g>
   </g>
  </g>
 </g>
 <defs>
  <clipPath id="pe0c4452d7e">
   <rect x="57.6" y="41.472" width="357.12" height="266.112"/>
  </clipPath>
 </defs>
</svg>
